<?xml version="1.0" standalone="no"?>
<!DOCTYPE svg PUBLIC "-//W3C//DTD SVG 20010904//EN"
 "http://www.w3.org/TR/2001/REC-SVG-20010904/DTD/svg10.dtd">
<svg version="1.0" xmlns="http://www.w3.org/2000/svg"
 width="200.000000pt" height="200.000000pt" viewBox="0 0 200.000000 200.000000"
 preserveAspectRatio="xMidYMid meet">

<g transform="translate(0.000000,200.000000) scale(0.100000,-0.100000)"
fill="#000000" stroke="none">
<path d="M1048 1983 c7 -3 16 -2 19 1 4 3 -2 6 -13 5 -11 0 -14 -3 -6 -6z"/>
<path d="M1110 1980 c-13 -9 -13 -10 0 -11 8 -1 -5 -5 -30 -9 l-45 -7 40 -1
c22 -1 47 3 55 8 11 7 11 10 2 10 -7 0 -10 5 -7 10 8 12 4 12 -15 0z"/>
<path d="M828 1973 c7 -3 16 -2 19 1 4 3 -2 6 -13 5 -11 0 -14 -3 -6 -6z"/>
<path d="M870 1970 c-8 -5 -10 -10 -5 -10 6 0 17 5 25 10 8 5 11 10 5 10 -5 0
-17 -5 -25 -10z"/>
<path d="M713 1949 c-43 -12 -42 -18 2 -16 20 1 35 7 35 15 0 6 -1 12 -2 11
-2 0 -18 -5 -35 -10z"/>
<path d="M1250 1950 c0 -5 7 -10 16 -10 9 0 12 -5 8 -12 -5 -8 -1 -8 12 2 29
22 30 23 14 18 -8 -3 -23 -1 -32 4 -12 5 -18 5 -18 -2z"/>
<path d="M813 1926 c14 -14 21 -16 30 -7 8 8 8 11 0 11 -6 0 -20 3 -30 7 -17
7 -17 6 0 -11z"/>
<path d="M1373 1913 c4 -6 21 -16 38 -23 23 -10 29 -18 26 -32 -5 -16 -3 -17
9 -7 21 17 18 23 -23 44 -55 28 -56 29 -50 18z"/>
<path d="M567 1891 c-20 -10 -34 -21 -30 -24 10 -11 51 -8 59 4 4 8 -1 9 -17
5 -16 -5 -12 0 11 13 43 25 29 26 -23 2z"/>
<path d="M920 1880 c-24 -8 -23 -8 8 -9 20 -1 31 3 27 9 -3 6 -7 10 -8 9 -1
-1 -13 -5 -27 -9z"/>
<path d="M1370 1860 c8 -5 20 -10 25 -10 6 0 3 5 -5 10 -8 5 -19 10 -25 10 -5
0 -3 -5 5 -10z"/>
<path d="M520 1850 c8 -5 20 -10 25 -10 6 0 3 5 -5 10 -8 5 -19 10 -25 10 -5
0 -3 -5 5 -10z"/>
<path d="M608 1853 c7 -3 16 -2 19 1 4 3 -2 6 -13 5 -11 0 -14 -3 -6 -6z"/>
<path d="M1478 1853 c7 -3 16 -2 19 1 4 3 -2 6 -13 5 -11 0 -14 -3 -6 -6z"/>
<path d="M1526 1831 c-3 -5 1 -12 10 -15 22 -8 25 -4 9 11 -8 7 -16 9 -19 4z"/>
<path d="M445 1810 c3 -5 11 -10 16 -10 6 0 7 5 4 10 -3 6 -11 10 -16 10 -6 0
-7 -4 -4 -10z"/>
<path d="M410 1800 c-8 -5 -12 -11 -9 -14 2 -3 11 -1 19 4 8 5 12 11 9 14 -2
3 -11 1 -19 -4z"/>
<path d="M1570 1801 c0 -5 7 -12 16 -15 14 -5 15 -4 4 9 -14 17 -20 19 -20 6z"/>
<path d="M465 1780 c-3 -5 -1 -10 4 -10 6 0 11 5 11 10 0 6 -2 10 -4 10 -3 0
-8 -4 -11 -10z"/>
<path d="M363 1758 c-19 -21 -20 -25 -6 -37 13 -12 14 -11 9 6 -5 14 -1 23 10
27 12 5 15 2 10 -11 -6 -14 -4 -15 4 -6 8 7 9 17 3 27 -8 15 -11 14 -30 -6z"/>
<path d="M1610 1774 c0 -11 40 -47 46 -41 2 2 -7 14 -21 27 -14 13 -25 19 -25
14z"/>
<path d="M302 1700 c-16 -21 -18 -28 -7 -24 11 5 14 1 9 -12 -5 -18 -5 -18 6
-1 7 10 9 21 6 24 -3 4 -1 12 6 20 6 7 9 16 6 18 -2 3 -14 -9 -26 -25z"/>
<path d="M1670 1723 c0 -6 4 -14 10 -18 5 -3 8 -11 6 -18 -1 -7 -1 -8 2 -4 2
5 19 -8 38 -28 19 -21 31 -42 27 -49 -3 -6 -3 -8 2 -4 4 4 15 2 24 -5 14 -11
15 -10 1 8 -8 11 -25 31 -37 45 -12 14 -34 39 -48 55 -14 17 -25 25 -25 18z"/>
<path d="M338 1688 c7 -7 16 -7 28 0 14 8 13 10 -10 10 -18 0 -24 -4 -18 -10z"/>
<path d="M1610 1696 c0 -2 7 -6 15 -10 8 -3 15 -1 15 4 0 6 -7 10 -15 10 -8 0
-15 -2 -15 -4z"/>
<path d="M249 1643 c-25 -30 -35 -50 -12 -25 12 15 27 23 37 19 10 -4 13 -1 9
9 -7 19 -17 18 -34 -3z"/>
<path d="M1686 1653 c-3 -3 -6 -17 -6 -30 0 -22 2 -23 15 -9 8 8 15 19 15 25
0 13 -15 22 -24 14z"/>
<path d="M260 1610 c0 -6 7 -10 15 -10 8 0 15 2 15 4 0 2 -7 6 -15 10 -8 3
-15 1 -15 -4z"/>
<path d="M1715 1610 c-3 -5 -2 -10 4 -10 5 0 13 5 16 10 3 6 2 10 -4 10 -5 0
-13 -4 -16 -10z"/>
<path d="M260 1580 c0 -5 5 -10 10 -10 6 0 10 5 10 10 0 6 -4 10 -10 10 -5 0
-10 -4 -10 -10z"/>
<path d="M1770 1570 c6 -11 13 -20 16 -20 2 0 0 9 -6 20 -6 11 -13 20 -16 20
-2 0 0 -9 6 -20z"/>
<path d="M167 1535 c-23 -36 -26 -48 -17 -62 7 -11 10 -12 7 -3 -7 25 11 61
29 58 9 -2 19 3 22 11 3 9 0 11 -8 6 -9 -5 -10 -2 -5 14 10 31 3 26 -28 -24z"/>
<path d="M1800 1565 c7 -8 9 -23 6 -32 -6 -14 -4 -15 4 -7 14 14 4 54 -12 54
-6 0 -6 -6 2 -15z"/>
<path d="M226 1533 c-6 -14 -5 -15 5 -6 7 7 10 15 7 18 -3 3 -9 -2 -12 -12z"/>
<path d="M1760 1541 c0 -6 4 -13 10 -16 6 -3 7 1 4 9 -7 18 -14 21 -14 7z"/>
<path d="M300 1530 c0 -5 5 -10 10 -10 6 0 10 5 10 10 0 6 -4 10 -10 10 -5 0
-10 -4 -10 -10z"/>
<path d="M1860 1465 c0 -8 5 -15 10 -15 6 0 10 -9 10 -21 0 -11 9 -32 20 -46
26 -33 25 -27 -5 41 -25 57 -35 68 -35 41z"/>
<path d="M106 1427 c-21 -55 -21 -60 -5 -66 6 -2 9 1 5 7 -3 5 1 27 10 47 8
20 13 42 11 48 -1 5 -11 -11 -21 -36z"/>
<path d="M615 1450 c4 -6 11 -8 16 -5 14 9 11 15 -7 15 -8 0 -12 -5 -9 -10z"/>
<path d="M510 1425 c7 -8 22 -14 34 -14 20 2 20 2 -1 6 -13 2 -23 9 -23 14 0
5 -5 9 -11 9 -8 0 -8 -5 1 -15z"/>
<path d="M141 1404 c0 -11 3 -14 6 -6 3 7 2 16 -1 19 -3 4 -6 -2 -5 -13z"/>
<path d="M1458 1413 c7 -3 16 -2 19 1 4 3 -2 6 -13 5 -11 0 -14 -3 -6 -6z"/>
<path d="M488 1403 c7 -3 16 -2 19 1 4 3 -2 6 -13 5 -11 0 -14 -3 -6 -6z"/>
<path d="M1506 1395 c4 -8 8 -15 10 -15 2 0 4 7 4 15 0 8 -4 15 -10 15 -5 0
-7 -7 -4 -15z"/>
<path d="M1846 1395 c-9 -26 -7 -32 5 -12 6 10 9 21 6 23 -2 3 -7 -2 -11 -11z"/>
<path d="M120 1386 c0 -8 4 -17 9 -20 5 -4 7 3 4 14 -6 23 -13 26 -13 6z"/>
<path d="M1505 1360 c3 -5 8 -10 11 -10 2 0 4 5 4 10 0 6 -5 10 -11 10 -5 0
-7 -4 -4 -10z"/>
<path d="M492 1320 c0 -14 2 -19 5 -12 2 6 2 18 0 25 -3 6 -5 1 -5 -13z"/>
<path d="M57 1311 c-3 -14 0 -21 9 -21 16 0 18 9 5 28 -6 10 -10 9 -14 -7z"/>
<path d="M1494 1277 c-8 -17 -7 -26 2 -34 12 -12 24 -7 24 9 0 5 -5 6 -10 3
-7 -4 -9 2 -4 19 8 32 2 33 -12 3z"/>
<path d="M125 1281 c-3 -5 -1 -12 5 -16 5 -3 10 1 10 9 0 18 -6 21 -15 7z"/>
<path d="M1924 1240 c3 -14 6 -32 6 -39 0 -10 3 -12 10 -5 7 7 5 20 -6 40 -15
27 -15 27 -10 4z"/>
<path d="M1952 1245 c0 -11 4 -31 8 -45 l8 -25 0 25 c0 14 -3 34 -8 45 l-9 20
1 -20z"/>
<path d="M38 1232 c-4 -16 -1 -29 13 -43 19 -19 19 -19 19 2 0 11 -4 18 -9 14
-5 -3 -11 7 -13 22 -3 27 -3 27 -10 5z"/>
<path d="M514 1235 c-3 -8 -4 -20 -1 -27 3 -7 6 -3 6 9 1 14 9 23 24 26 l22 4
-23 2 c-12 0 -25 -6 -28 -14z"/>
<path d="M1236 1225 c4 -8 1 -15 -5 -15 -6 0 -11 6 -11 13 0 8 -3 8 -9 -2 -5
-8 -8 -27 -6 -42 2 -16 -2 -33 -12 -40 -16 -14 -83 -115 -83 -127 0 -4 17 18
37 48 20 30 44 63 53 72 23 25 59 95 52 102 -11 12 -21 6 -16 -9z m-13 -40
c-7 -21 -12 -19 -10 4 0 11 5 18 9 15 4 -3 5 -11 1 -19z"/>
<path d="M1465 1229 c-4 -6 -5 -12 -2 -15 2 -3 7 2 10 11 7 17 1 20 -8 4z"/>
<path d="M541 1214 c0 -11 3 -14 6 -6 3 7 2 16 -1 19 -3 4 -6 -2 -5 -13z"/>
<path d="M151 1184 c0 -11 3 -14 6 -6 3 7 2 16 -1 19 -3 4 -6 -2 -5 -13z"/>
<path d="M736 1182 c12 -11 17 -11 33 0 18 13 17 14 -13 14 -28 0 -31 -2 -20
-14z"/>
<path d="M960 1186 c0 -15 -10 -17 -84 -14 -46 2 -82 0 -79 -4 2 -5 40 -8 84
-8 63 0 81 3 86 15 3 9 3 19 -1 22 -3 4 -6 -1 -6 -11z"/>
<path d="M1015 1170 c-3 -5 -13 -7 -23 -4 -13 5 -14 4 -3 -4 9 -7 10 -12 2
-16 -6 -4 -11 -12 -11 -17 0 -6 7 -3 16 5 19 19 31 20 37 4 3 -8 6 -6 6 5 1 9
-4 17 -10 17 -5 0 -7 5 -4 10 3 6 4 10 1 10 -3 0 -7 -4 -11 -10z"/>
<path d="M1417 1157 c-13 -20 -13 -23 2 -23 10 0 16 9 16 23 0 13 -1 23 -1 23
-1 0 -8 -10 -17 -23z"/>
<path d="M756 1141 c-12 -21 -21 -29 -34 -25 -13 5 -14 4 -3 -4 7 -5 10 -15 7
-21 -11 -17 -22 -13 -35 12 -11 20 -8 5 4 -26 3 -7 -3 -24 -15 -37 -24 -28
-24 -30 -4 -30 8 0 13 4 10 8 -3 5 3 18 12 28 31 33 84 115 79 121 -3 3 -13
-9 -21 -26z"/>
<path d="M1971 1154 c0 -11 3 -14 6 -6 3 7 2 16 -1 19 -3 4 -6 -2 -5 -13z"/>
<path d="M40 1116 c0 -9 5 -16 10 -16 6 0 10 4 10 9 0 6 -4 13 -10 16 -5 3
-10 -1 -10 -9z"/>
<path d="M1940 1111 c0 -6 5 -13 10 -16 6 -3 10 1 10 9 0 9 -4 16 -10 16 -5 0
-10 -4 -10 -9z"/>
<path d="M650 1091 c0 -6 4 -13 10 -16 6 -3 7 1 4 9 -7 18 -14 21 -14 7z"/>
<path d="M1370 1078 c-30 -45 -32 -52 -6 -24 14 16 26 33 26 38 0 13 -4 10
-20 -14z"/>
<path d="M107 1083 c-11 -10 -8 -43 3 -43 6 0 10 11 10 25 0 26 -2 29 -13 18z"/>
<path d="M62 1055 c0 -16 2 -22 5 -12 2 9 2 23 0 30 -3 6 -5 -1 -5 -18z"/>
<path d="M927 1062 c-20 -22 -21 -32 -5 -32 6 0 8 3 5 7 -4 3 0 15 10 25 9 10
14 18 11 18 -3 0 -12 -8 -21 -18z"/>
<path d="M1406 1065 c4 -8 11 -15 16 -15 6 0 5 6 -2 15 -7 8 -14 15 -16 15 -2
0 -1 -7 2 -15z"/>
<path d="M31 1054 c0 -11 3 -14 6 -6 3 7 2 16 -1 19 -3 4 -6 -2 -5 -13z"/>
<path d="M1966 1012 c-4 -13 -5 -26 -2 -29 10 -11 18 4 14 29 l-4 23 -8 -23z"/>
<path d="M849 950 c-26 -37 -41 -66 -35 -64 6 2 27 30 45 60 25 41 36 53 42
43 6 -10 9 -8 9 9 0 12 -3 22 -7 22 -5 -1 -29 -32 -54 -70z"/>
<path d="M1320 1016 c0 -2 7 -9 15 -16 13 -11 14 -10 9 4 -5 14 -24 23 -24 12z"/>
<path d="M1082 990 c-7 -11 -12 -25 -12 -32 0 -7 7 0 15 16 18 33 15 45 -3 16z"/>
<path d="M645 990 c-3 -5 -4 -14 -1 -19 4 -5 -7 -21 -24 -34 -26 -22 -50 -63
-50 -85 0 -4 16 17 35 45 19 28 39 54 44 58 6 3 7 13 4 22 -5 12 -3 14 7 8 9
-5 11 -4 6 3 -9 15 -13 15 -21 2z"/>
<path d="M930 981 c0 -5 5 -13 10 -16 6 -3 10 -2 10 4 0 5 -4 13 -10 16 -5 3
-10 2 -10 -4z"/>
<path d="M1310 975 c11 -14 34 -14 47 -1 4 4 4 7 -2 6 -5 -1 -12 -1 -15 0 -3
1 -13 3 -23 5 -14 3 -16 0 -7 -10z"/>
<path d="M12 940 c0 -14 2 -19 5 -12 2 6 2 18 0 25 -3 6 -5 1 -5 -13z"/>
<path d="M1001 948 c0 -9 -4 -25 -7 -35 -5 -17 -5 -17 6 0 6 10 9 25 7 35 -4
15 -5 15 -6 0z"/>
<path d="M1045 951 c4 -7 -1 -22 -12 -34 -38 -44 -45 -61 -10 -24 39 41 44 52
25 63 -7 5 -8 3 -3 -5z"/>
<path d="M1981 944 c0 -11 3 -14 6 -6 3 7 2 16 -1 19 -3 4 -6 -2 -5 -13z"/>
<path d="M21 880 c0 -33 1 -34 10 -11 6 16 6 28 -1 35 -7 7 -10 -1 -9 -24z"/>
<path d="M1229 868 c-17 -33 -18 -40 -5 -29 10 9 16 10 16 2 0 -21 17 -11 29
17 10 25 10 26 -4 8 -19 -26 -28 -16 -16 18 16 40 4 31 -20 -16z"/>
<path d="M1930 869 c-6 -11 -10 -27 -8 -35 2 -8 8 1 14 20 12 40 10 46 -6 15z"/>
<path d="M490 850 c0 -5 5 -10 10 -10 6 0 10 5 10 10 0 6 -4 10 -10 10 -5 0
-10 -4 -10 -10z"/>
<path d="M1971 844 c0 -11 3 -14 6 -6 3 7 2 16 -1 19 -3 4 -6 -2 -5 -13z"/>
<path d="M818 843 c7 -3 16 -2 19 1 4 3 -2 6 -13 5 -11 0 -14 -3 -6 -6z"/>
<path d="M548 833 c7 -3 16 -2 19 1 4 3 -2 6 -13 5 -11 0 -14 -3 -6 -6z"/>
<path d="M770 829 c0 -15 18 -19 23 -6 3 8 -1 14 -9 14 -8 0 -14 -4 -14 -8z"/>
<path d="M1950 820 c0 -8 5 -22 10 -30 9 -13 10 -13 10 0 0 8 -5 22 -10 30 -9
13 -10 13 -10 0z"/>
<path d="M40 805 c-7 -8 -10 -18 -6 -22 3 -3 6 0 6 8 0 12 2 12 10 -1 12 -19
24 -6 13 15 -9 15 -11 15 -23 0z"/>
<path d="M515 798 c-4 -13 -6 -29 -5 -37 1 -8 -3 -10 -11 -5 -8 4 -10 3 -5 -5
10 -16 27 -3 24 17 -2 9 2 16 7 15 6 -1 12 7 12 18 2 26 -13 24 -22 -3z"/>
<path d="M730 780 c-16 -22 -17 -28 -6 -24 9 3 16 10 16 14 0 5 7 16 16 24 8
9 11 16 5 16 -5 0 -19 -13 -31 -30z"/>
<path d="M780 791 c0 -16 13 -19 30 -8 14 8 28 8 55 -1 30 -8 40 -8 51 2 10
11 -1 13 -62 13 -41 1 -74 -2 -74 -6z"/>
<path d="M1170 788 c0 -4 4 -8 9 -8 6 0 12 4 15 8 3 5 -1 9 -9 9 -8 0 -15 -4
-15 -9z"/>
<path d="M1471 774 c-16 -16 -20 -24 -10 -24 21 0 60 30 54 41 -9 13 -17 10
-44 -17z"/>
<path d="M927 773 c-4 -3 -7 -11 -7 -17 0 -6 5 -5 12 2 6 6 9 14 7 17 -3 3 -9
2 -12 -2z"/>
<path d="M41 754 c0 -11 3 -14 6 -6 3 7 2 16 -1 19 -3 4 -6 -2 -5 -13z"/>
<path d="M760 760 c0 -5 5 -10 11 -10 5 0 7 5 4 10 -3 6 -8 10 -11 10 -2 0 -4
-4 -4 -10z"/>
<path d="M55 711 c-3 -5 -1 -12 5 -16 5 -3 10 1 10 9 0 18 -6 21 -15 7z"/>
<path d="M110 704 c0 -8 5 -12 10 -9 6 3 10 10 10 16 0 5 -4 9 -10 9 -5 0 -10
-7 -10 -16z"/>
<path d="M146 661 c-4 -7 -5 -15 -2 -18 9 -9 19 4 14 18 -4 11 -6 11 -12 0z"/>
<path d="M1903 617 c-26 -49 -44 -97 -38 -97 6 0 66 132 62 136 -1 2 -12 -16
-24 -39z"/>
<path d="M81 642 c-1 -21 32 -79 37 -64 2 7 -3 21 -11 30 -8 9 -17 24 -20 32
-4 10 -6 11 -6 2z"/>
<path d="M142 600 c0 -14 2 -19 5 -12 2 6 2 18 0 25 -3 6 -5 1 -5 -13z"/>
<path d="M492 585 c-16 -19 -3 -19 22 0 14 11 16 15 5 15 -8 -1 -20 -7 -27
-15z"/>
<path d="M783 593 c125 -2 329 -2 455 0 125 1 22 2 -228 2 -250 0 -353 -1
-227 -2z"/>
<path d="M1470 590 c0 -5 5 -10 10 -10 6 0 10 5 10 10 0 6 -4 10 -10 10 -5 0
-10 -4 -10 -10z"/>
<path d="M1850 576 c0 -9 5 -16 10 -16 6 0 10 4 10 9 0 6 -4 13 -10 16 -5 3
-10 -1 -10 -9z"/>
<path d="M125 536 c21 -32 27 -33 16 -4 -4 12 -14 24 -20 26 -8 3 -7 -5 4 -22z"/>
<path d="M186 465 c-7 -19 3 -45 17 -45 7 0 7 4 -1 12 -17 17 -15 33 3 18 8
-7 15 -8 15 -2 0 5 -6 15 -14 21 -10 9 -15 8 -20 -4z"/>
<path d="M1806 467 c3 -10 9 -15 12 -12 3 3 0 11 -7 18 -10 9 -11 8 -5 -6z"/>
<path d="M1784 449 c-8 -13 13 -36 23 -24 5 4 2 10 -5 12 -6 3 -10 9 -6 14 3
5 3 9 0 9 -3 0 -8 -5 -12 -11z"/>
<path d="M225 386 c10 -14 19 -26 22 -26 7 0 -17 39 -28 46 -6 3 -3 -5 6 -20z"/>
<path d="M1775 400 c-4 -6 -11 -8 -16 -5 -5 4 -6 -2 -2 -12 6 -15 4 -16 -9 -5
-13 11 -15 9 -15 -13 0 -13 3 -22 8 -20 11 7 52 65 45 65 -3 0 -8 -5 -11 -10z"/>
<path d="M261 355 c0 -11 55 -75 65 -75 4 0 1 7 -6 15 -6 8 -8 20 -4 26 5 8 3
9 -6 4 -8 -5 -19 1 -31 16 -10 13 -19 20 -18 14z"/>
<path d="M1687 317 c2 -4 -1 -16 -8 -25 -8 -9 -1 -6 14 7 15 14 27 25 27 26 0
0 -9 1 -19 1 -11 0 -17 -4 -14 -9z"/>
<path d="M1630 310 c-8 -5 -12 -12 -9 -15 4 -3 12 1 19 10 14 17 11 19 -10 5z"/>
<path d="M370 271 c0 -6 5 -11 10 -11 6 0 10 -5 10 -11 0 -6 -7 -9 -15 -5 -21
8 -19 -1 3 -13 14 -7 18 -6 19 9 1 10 -5 24 -13 31 -10 8 -14 8 -14 0z"/>
<path d="M1615 239 c-16 -16 -33 -29 -38 -29 -4 0 -20 -12 -35 -26 -15 -15
-20 -23 -12 -19 22 12 130 95 130 101 0 10 -17 0 -45 -27z"/>
<path d="M1525 230 c-3 -6 1 -7 9 -4 18 7 21 14 7 14 -6 0 -13 -4 -16 -10z"/>
<path d="M450 211 c0 -5 7 -12 16 -15 14 -5 15 -4 4 9 -14 17 -20 19 -20 6z"/>
<path d="M430 190 c14 -11 29 -20 34 -20 5 0 -3 9 -17 20 -14 11 -29 20 -34
20 -4 0 3 -9 17 -20z"/>
<path d="M490 155 c0 -2 18 -14 41 -26 23 -11 38 -16 35 -11 -3 6 -1 13 4 15
6 3 5 4 -2 3 -7 -2 -28 3 -45 11 -18 7 -33 11 -33 8z"/>
<path d="M1459 152 c11 -8 10 -12 -5 -21 -29 -16 -10 -13 22 4 16 8 24 15 17
15 -6 0 -20 3 -30 6 -14 4 -15 4 -4 -4z"/>
<path d="M1393 122 c-7 -4 -9 -13 -5 -19 5 -8 13 -9 22 -3 13 9 13 10 0 10
-13 0 -13 1 0 10 8 5 11 10 5 10 -5 0 -15 -4 -22 -8z"/>
<path d="M597 111 c-17 -6 -16 -8 9 -20 23 -10 26 -10 16 2 -7 8 -9 17 -5 20
8 8 4 8 -20 -2z"/>
<path d="M706 65 c10 -8 26 -14 34 -15 8 0 2 7 -14 15 -36 19 -45 19 -20 0z"/>
<path d="M848 73 c7 -3 16 -2 19 1 4 3 -2 6 -13 5 -11 0 -14 -3 -6 -6z"/>
<path d="M1128 73 c6 -2 18 -2 25 0 6 3 1 5 -13 5 -14 0 -19 -2 -12 -5z"/>
<path d="M1200 70 c0 -5 5 -10 11 -10 5 0 7 5 4 10 -3 6 -8 10 -11 10 -2 0 -4
-4 -4 -10z"/>
<path d="M788 63 c6 -2 18 -2 25 0 6 3 1 5 -13 5 -14 0 -19 -2 -12 -5z"/>
<path d="M1265 60 c-16 -7 -17 -9 -3 -9 9 -1 20 4 23 9 7 11 7 11 -20 0z"/>
<path d="M773 43 c9 -2 25 -2 35 0 9 3 1 5 -18 5 -19 0 -27 -2 -17 -5z"/>
<path d="M1085 40 l40 -7 -45 -3 c-25 -1 -37 -4 -26 -7 10 -3 39 -2 65 3 40 6
43 8 21 15 -14 4 -41 7 -60 7 l-35 -1 40 -7z"/>
<path d="M1208 43 c6 -2 18 -2 25 0 6 3 1 5 -13 5 -14 0 -19 -2 -12 -5z"/>
<path d="M855 30 c-4 -6 7 -10 27 -9 27 0 30 2 13 9 -27 12 -33 12 -40 0z"/>
</g>
</svg>
