<?xml version="1.0" encoding="UTF-8"?>
<svg version="1.1" xmlns="http://www.w3.org/2000/svg" width="200" height="200">
<path d="M0 0 C66 0 132 0 200 0 C200 66 200 132 200 200 C134 200 68 200 0 200 C0 134 0 68 0 0 Z " fill="#019CFA" transform="translate(0,0)"/>
<path d="M0 0 C32.67 0 65.34 0 99 0 C99 12 99 12 97.2109375 14.921875 C96.48132813 15.60765625 95.75171875 16.2934375 95 17 C93.84963271 18.73343016 92.72483135 20.48407361 91.625 22.25 C88.49640764 27.22399885 85.2764151 32.12260934 82 37 C80.39366597 39.39438768 78.79020852 41.79068442 77.1875 44.1875 C76.80940186 44.75049805 76.43130371 45.31349609 76.04174805 45.89355469 C71.59970589 52.53787705 67.32459526 59.27285182 63 66 C75.21 66 87.42 66 100 66 C100 70.62 100 75.24 100 80 C66.34 80 32.68 80 -2 80 C-2 68.24951424 -1.49245223 66.14761959 5 58 C6.60863194 55.69684314 8.14678965 53.3489619 9.6875 51 C10.53324967 49.72616095 11.37962399 48.45273644 12.2265625 47.1796875 C13.1510941 45.78649313 14.0755699 44.39326172 15 43 C17.18586013 39.70724052 19.37374191 36.41583365 21.5625 33.125 C22.08739014 32.33351562 22.61228027 31.54203125 23.15307617 30.7265625 C23.6401001 29.994375 24.12712402 29.2621875 24.62890625 28.5078125 C25.06275635 27.85441895 25.49660645 27.20102539 25.94360352 26.52783203 C27 25 27 25 28 24 C29.41570123 23.91348389 30.835595 23.89295096 32.25390625 23.90234375 C33.53491211 23.90717773 33.53491211 23.90717773 34.84179688 23.91210938 C35.73962891 23.92048828 36.63746094 23.92886719 37.5625 23.9375 C38.46419922 23.94201172 39.36589844 23.94652344 40.29492188 23.95117188 C42.53001314 23.96299775 44.76497437 23.9794778 47 24 C45.31538517 27.46938348 43.33791808 30.52213549 41.125 33.6875 C40.73860352 34.24203857 40.35220703 34.79657715 39.95410156 35.36791992 C37.62288749 38.70679349 35.27097344 42.03079364 32.9140625 45.3515625 C32.38925293 46.09188721 31.86444336 46.83221191 31.32373047 47.5949707 C30.3016057 49.03523742 29.27731319 50.47396909 28.25048828 51.91088867 C27.7707959 52.58611572 27.29110352 53.26134277 26.796875 53.95703125 C26.37760742 54.54460205 25.95833984 55.13217285 25.52636719 55.73754883 C23.25908978 59.09821098 21.14859485 62.56224824 19 66 C31.375 65.505 31.375 65.505 44 65 C44.66 63.35 45.32 61.7 46 60 C46.9732424 58.46869339 47.99815723 56.96944723 49.0625 55.5 C49.69027344 54.62214844 50.31804687 53.74429688 50.96484375 52.83984375 C51.97224609 51.43412109 51.97224609 51.43412109 53 50 C54.37929169 48.02382184 55.754036 46.04446453 57.125 44.0625 C57.87265625 42.98226562 58.6203125 41.90203125 59.390625 40.7890625 C61.3883069 37.89352831 63.3752168 34.99075404 65.359375 32.0859375 C65.94058105 31.23507568 66.52178711 30.38421387 67.12060547 29.50756836 C68.27156442 27.82149198 69.42165929 26.13482536 70.57080078 24.44750977 C71.36719971 23.28046509 71.36719971 23.28046509 72.1796875 22.08984375 C72.88714111 21.05138306 72.88714111 21.05138306 73.60888672 19.99194336 C75.02668724 17.96178638 76.51426434 15.98098088 78 14 C52.26 14 26.52 14 0 14 C0 9.38 0 4.76 0 0 Z " fill="#F7FCFC" transform="translate(51,60)"/>
<path d="M0 0 C0.33 0 0.66 0 1 0 C1 30.36 1 60.72 1 92 C-28.04 92 -57.08 92 -87 92 C-83.52919964 89.68613309 -80.31594446 89.12719069 -76.3125 88.3125 C-50.92524947 82.70989026 -28.61252485 66.60803037 -14.5078125 44.71875 C-11.1802804 38.71884757 -8.57143647 32.35369878 -6 26 C-5.73131104 25.35885254 -5.46262207 24.71770508 -5.18579102 24.05712891 C-3.13510667 18.95362734 -2.12133657 13.92760278 -1.3125 8.5 C-1.11817383 7.26636719 -1.11817383 7.26636719 -0.91992188 6.0078125 C-0.60574306 4.00637712 -0.30178543 2.00334158 0 0 Z " fill="#FCFDFD" transform="translate(199,108)"/>
<path d="M0 0 C0.33 0 0.66 0 1 0 C1.17015625 1.07636719 1.3403125 2.15273437 1.515625 3.26171875 C6.23240464 32.08611492 18.07927064 54.34359238 41 73 C56.55860209 84.01594455 73.12377853 90.02389557 92 92 C92 92.33 92 92.66 92 93 C61.64 93 31.28 93 0 93 C0 62.31 0 31.62 0 0 Z " fill="#FCFEFD" transform="translate(0,107)"/>
<path d="M0 0 C30.36 0 60.72 0 92 0 C92 30.36 92 60.72 92 92 C91.67 92 91.34 92 91 92 C90.82984375 91.00742188 90.6596875 90.01484375 90.484375 88.9921875 C86.75362707 67.77849178 79.89823333 43.88113301 62.203125 29.76953125 C61.47609375 29.18558594 60.7490625 28.60164063 60 28 C60 27.34 60 26.68 60 26 C59.41605469 25.73316406 58.83210938 25.46632813 58.23046875 25.19140625 C55.95497719 23.97595104 54.26692047 22.61441655 52.3125 20.9375 C37.29325753 9.21516441 18.89321302 2.67601083 0 1 C0 0.67 0 0.34 0 0 Z " fill="#FAFDFC" transform="translate(108,0)"/>
<path d="M0 0 C29.04 0 58.08 0 88 0 C88 0.33 88 0.66 88 1 C86.89785156 1.20753906 85.79570313 1.41507812 84.66015625 1.62890625 C60.62405402 6.40352994 42.13330057 16.5155044 25 34 C24.67 34.66 24.34 35.32 24 36 C23.34 36 22.68 36 22 36 C21.60748047 37.07701172 21.60748047 37.07701172 21.20703125 38.17578125 C19.95568787 41.10368179 18.45129036 43.53985903 16.6875 46.1875 C8.4082715 59.07772739 3.43693838 72.86915874 1 88 C0.67 88 0.34 88 0 88 C0 58.96 0 29.92 0 0 Z " fill="#FCFDFD" transform="translate(0,0)"/>
<path d="M0 0 C25.74 0 51.48 0 78 0 C76.19669132 3.60661736 74.24561616 6.64426195 71.9375 9.9375 C71.12103604 11.10673054 70.30463138 12.27600249 69.48828125 13.4453125 C68.86493896 14.33524902 68.86493896 14.33524902 68.22900391 15.24316406 C65.60606954 18.99259508 63.00750193 22.75894967 60.40625 26.5234375 C58.64260795 29.0753741 56.86945955 31.62051004 55.09375 34.1640625 C54.10405624 35.58846494 53.11447138 37.01294307 52.125 38.4375 C51.42818115 39.43100464 51.42818115 39.43100464 50.71728516 40.44458008 C50.27690918 41.08032959 49.8365332 41.7160791 49.3828125 42.37109375 C48.99496582 42.92724365 48.60711914 43.48339355 48.20751953 44.05639648 C46.62626349 46.60156012 45.34001706 49.31996588 44 52 C35.75 52 27.5 52 19 52 C20.49565855 48.26085363 21.59538652 45.88892049 23.8359375 42.734375 C24.40038574 41.93418945 24.96483398 41.13400391 25.54638672 40.30957031 C26.1498291 39.46491211 26.75327148 38.62025391 27.375 37.75 C27.99262207 36.87698242 28.61024414 36.00396484 29.24658203 35.10449219 C30.52557995 33.2973476 31.80668802 31.49169472 33.08984375 29.6875 C35.49308041 26.30625905 37.88264659 22.91549133 40.27197266 19.52441406 C42.51128316 16.34722603 44.75550879 13.1735297 47 10 C35.30902966 8.99908577 35.30902966 8.99908577 25.21484375 13.515625 C23.5405992 16.28825929 22.2145972 19.00300608 21 22 C20.67 22 20.34 22 20 22 C20 19.36 20 16.72 20 14 C20.99 14 21.98 14 23 14 C23.66 12.02 24.32 10.04 25 8 C31.6 8 38.2 8 45 8 C45 7.34 45 6.68 45 6 C45.99 6 46.98 6 48 6 C48 5.34 48 4.68 48 4 C44.56739755 2.85579918 41.78375755 2.80702379 38.1640625 2.71875 C37.15126724 2.69113586 37.15126724 2.69113586 36.11801147 2.66296387 C33.95376173 2.60432173 31.78942794 2.55161439 29.625 2.5 C19.71904547 2.25783936 9.87576652 1.87936369 0 1 C0 0.67 0 0.34 0 0 Z " fill="#049BF9" transform="translate(51,74)"/>
<path d="M0 0 C7.47253542 13.97303371 2.71560022 35.45121491 -1 50 C-2.34373999 53.90469899 -3.99986364 57.39730791 -6 61 C-6.79253997 62.68709003 -7.58419921 64.37459406 -8.375 66.0625 C-14.91602625 78.92110128 -24.76167984 90.01937809 -36 99 C-36.33 99 -36.66 99 -37 99 C-37.45374191 93.32822615 -36.65083143 90.4024732 -33 86 C-32.34 86 -31.68 86 -31 86 C-31 85.34 -31 84.68 -31 84 C-29.515 83.505 -29.515 83.505 -28 83 C-28 84.32 -28 85.64 -28 87 C-27.01 87 -26.02 87 -25 87 C-25.33 86.01 -25.66 85.02 -26 84 C-25.34 83.01 -24.68 82.02 -24 81 C-23.01 81 -22.02 81 -21 81 C-19.39644899 77.49223216 -18.77963136 74.85645121 -19 71 C-18.34 71 -17.68 71 -17 71 C-16.67 71.99 -16.34 72.98 -16 74 C-15.566875 72.3603125 -15.566875 72.3603125 -15.125 70.6875 C-14 67 -14 67 -12 64 C-11.34 64 -10.68 64 -10 64 C-9.896875 63.05125 -9.79375 62.1025 -9.6875 61.125 C-9 58 -9 58 -6 56 C-5.27560748 53.61406582 -5.27560748 53.61406582 -4.9375 50.9375 C-4.52734375 48.21484375 -4.52734375 48.21484375 -4 46 C-3.34 45.67 -2.68 45.34 -2 45 C-1.48557417 42.69778566 -1.13966701 40.52412385 -0.875 38.1875 C-0.74762451 37.10480835 -0.74762451 37.10480835 -0.61767578 36.00024414 C0.59413991 24.06129943 0.16530707 11.98221963 0 0 Z " fill="#0E9BF0" transform="translate(197,80)"/>
<path d="M0 0 C0.33 0.99 0.66 1.98 1 3 C0.34 3.66 -0.32 4.32 -1 5 C-1 7.97 -1 10.94 -1 14 C31.01 14.33 63.02 14.66 96 15 C95.505 10.545 95.505 10.545 95 6 C92.02640551 4.51320275 89.33700821 4.88887395 86.0234375 4.90234375 C85.33819 4.9037587 84.6529425 4.90517365 83.94692993 4.90663147 C81.75624239 4.91223325 79.5656567 4.92478594 77.375 4.9375 C75.89062648 4.94251478 74.40625135 4.94707772 72.921875 4.95117188 C69.28121685 4.96220323 65.64061836 4.97946901 62 5 C61.505 4.01 61.505 4.01 61 3 C73.21 3 85.42 3 98 3 C98 7.62 98 12.24 98 17 C64.34 17 30.68 17 -4 17 C-4 5 -4 5 -2 1.75 C-1.01 0.88375 -1.01 0.88375 0 0 Z " fill="#B9E8FC" transform="translate(53,123)"/>
<path d="M0 0 C-2.02940466 2.02940466 -3.34459102 2.97361851 -6 4 C-8.578125 3.9765625 -8.578125 3.9765625 -11.25 3.625 C-12.14203125 3.51414063 -13.0340625 3.40328125 -13.953125 3.2890625 C-14.62859375 3.19367188 -15.3040625 3.09828125 -16 3 C-16 3.66 -16 4.32 -16 5 C-16.969375 5.309375 -17.93875 5.61875 -18.9375 5.9375 C-21.84065792 6.69523342 -21.84065792 6.69523342 -23 8 C-24.51469448 8.23192865 -26.03754562 8.41215238 -27.5625 8.5625 C-28.38878906 8.64628906 -29.21507813 8.73007813 -30.06640625 8.81640625 C-30.70449219 8.87699219 -31.34257813 8.93757812 -32 9 C-31.67 9.33 -31.34 9.66 -31 10 C-30.67 10.66 -30.34 11.32 -30 12 C-30.66 12 -31.32 12 -32 12 C-32.33 12.99 -32.66 13.98 -33 15 C-33.51046875 14.80535156 -34.0209375 14.61070313 -34.546875 14.41015625 C-38.02582927 13.82848396 -40.82836957 14.64545592 -44.25 15.4375 C-46.14492188 15.86869141 -46.14492188 15.86869141 -48.078125 16.30859375 C-49.52445313 16.65083984 -49.52445313 16.65083984 -51 17 C-40.46678924 4.48452448 -15.4264549 -0.26597336 0 0 Z " fill="#0C9AF1" transform="translate(96,0)"/>
<path d="M0 0 C0.66 0.66 1.32 1.32 2 2 C1.46428571 5.53571429 1.46428571 5.53571429 0 7 C0.95712891 7.16435547 0.95712891 7.16435547 1.93359375 7.33203125 C2.75988281 7.49058594 3.58617188 7.64914063 4.4375 7.8125 C5.26121094 7.96332031 6.08492187 8.11414063 6.93359375 8.26953125 C7.95646484 8.63111328 7.95646484 8.63111328 9 9 C9.33 9.99 9.66 10.98 10 12 C11.75648158 12.21507938 13.51298087 12.43001448 15.26953125 12.64453125 C17.33220404 12.91306233 19.39166016 13.20646374 21.44921875 13.51171875 C29.29367692 14.6484799 37.06304823 15.60727567 45 15 C45.33 14.67 45.66 14.34 46 14 C48.85877909 13.76298761 51.69883297 13.57780818 54.5625 13.4375 C55.36880859 13.39431641 56.17511719 13.35113281 57.00585938 13.30664062 C59.00368805 13.20024738 61.0018207 13.09959112 63 13 C55.85074125 16.82176053 48.29220071 17.34204347 40.3125 17.25 C39.43674316 17.24178223 38.56098633 17.23356445 37.65869141 17.22509766 C21.64174974 16.9519314 6.22447731 13.53987326 -8 6 C-7.401875 5.855625 -6.80375 5.71125 -6.1875 5.5625 C-4.43849596 5.1127561 -2.71322977 4.57107659 -1 4 C-0.26676204 1.98491642 -0.26676204 1.98491642 0 0 Z " fill="#35A8E1" transform="translate(62,183)"/>
<path d="M0 0 C0.99 0.495 0.99 0.495 2 1 C2.47070312 2.77832031 2.47070312 2.77832031 2.78125 5.078125 C2.90113281 5.90957031 3.02101563 6.74101563 3.14453125 7.59765625 C3.32048828 8.91056641 3.32048828 8.91056641 3.5 10.25 C4.21160214 15.46580906 4.88097726 20.14086164 7 25 C7 25.99 7 26.98 7 28 C8.98 26.68 10.96 25.36 13 24 C13.66 27.96 14.32 31.92 15 36 C14.34 36 13.68 36 13 36 C13.350625 36.7425 13.70125 37.485 14.0625 38.25 C15.0720098 41.21122875 14.87980884 42.12062561 14 45 C5.23308664 31.92494708 -0.38064486 15.84684668 0 0 Z " fill="#1A9BE7" transform="translate(1,108)"/>
<path d="M0 0 C25.74 0 51.48 0 78 0 C76.13681456 3.72637087 74.00227947 7.03861187 71.625 10.4375 C71.23828125 10.99759766 70.8515625 11.55769531 70.453125 12.13476562 C68.09136743 15.5307828 65.62010648 18.79964162 63 22 C63.50768319 17.5577721 65.15821768 15.3746165 68 12 C68.33 11.01 68.66 10.02 69 9 C69.66 9 70.32 9 71 9 C70.938125 8.21625 70.87625 7.4325 70.8125 6.625 C70.9053125 5.325625 70.9053125 5.325625 71 4 C71.99 3.34 72.98 2.68 74 2 C37.37 1.505 37.37 1.505 0 1 C0 0.67 0 0.34 0 0 Z " fill="#3199E5" transform="translate(51,74)"/>
<path d="M0 0 C0.33 0 0.66 0 1 0 C1.05429959 1.74965358 1.09292823 3.49979787 1.125 5.25 C1.14820313 6.22453125 1.17140625 7.1990625 1.1953125 8.203125 C0.99627621 11.05332464 0.43848061 12.57390583 -1 15 C-1.433125 15.99 -1.433125 15.99 -1.875 17 C-3 19 -3 19 -5 20.9375 C-7.11741764 22.8479952 -7.11741764 22.8479952 -7.875 25.3125 C-9.24084804 28.57535921 -11.21040206 30.62785712 -13.5546875 33.23828125 C-15.19949188 35.11050091 -15.19949188 35.11050091 -16.5625 38.125 C-18.22371675 41.44743349 -20.38562967 43.38562967 -23 46 C-24.79320824 49.16645474 -24.79320824 49.16645474 -26 52 C-26.66 52 -27.32 52 -28 52 C-26.40756778 47.33900457 -23.88158891 43.59290624 -21.125 39.5625 C-20.69058594 38.91990234 -20.25617188 38.27730469 -19.80859375 37.61523438 C-18.94632965 36.33996389 -18.08257618 35.06569908 -17.21728516 33.79248047 C-13.42969928 28.2151729 -9.78199197 22.55713762 -6.1796875 16.859375 C-4.58633027 14.36167988 -3.10185282 12.10185282 -1 10 C-0.53837573 7.56747339 -0.53837573 7.56747339 -0.375 4.875 C-0.30023438 3.96492188 -0.22546875 3.05484375 -0.1484375 2.1171875 C-0.09945312 1.41851562 -0.05046875 0.71984375 0 0 Z " fill="#2599E0" transform="translate(150,62)"/>
<path d="M0 0 C8.58 0 17.16 0 26 0 C26 0.33 26 0.66 26 1 C24.34677734 1.31130859 24.34677734 1.31130859 22.66015625 1.62890625 C11.44336612 3.86354495 1.4345268 7.3700351 -9 12 C-10.66303465 12.67567594 -12.32803427 13.34673679 -14 14 C-14 13.34 -14 12.68 -14 12 C-13.01 12 -12.02 12 -11 12 C-11 11.34 -11 10.68 -11 10 C-10.05125 9.9175 -9.1025 9.835 -8.125 9.75 C-7.09375 9.5025 -6.0625 9.255 -5 9 C-3.81669817 7.13355094 -3.81669817 7.13355094 -3 5 C-0.875 3.25 -0.875 3.25 1 2 C0.67 1.34 0.34 0.68 0 0 Z " fill="#E0F9FC" transform="translate(62,0)"/>
<path d="M0 0 C0.33 1.32 0.66 2.64 1 4 C0.34 4 -0.32 4 -1 4 C-1 4.66 -1 5.32 -1 6 C0.0194873 5.96447021 1.03897461 5.92894043 2.08935547 5.89233398 C5.86490443 5.76215139 9.64065371 5.63892585 13.41650391 5.51782227 C15.05198393 5.46438901 16.68740311 5.4090586 18.32275391 5.35180664 C20.67076494 5.26993239 23.0189089 5.19484017 25.3671875 5.12109375 C26.10057343 5.09405869 26.83395935 5.06702362 27.58956909 5.03916931 C32.77225659 4.88612829 32.77225659 4.88612829 35 6 C34.67 10.95 34.34 15.9 34 21 C33.67 21 33.34 21 33 21 C33 16.71 33 12.42 33 8 C20.79 8 8.58 8 -4 8 C-2 3 -2 3 0 0 Z " fill="#49ACE5" transform="translate(118,118)"/>
<path d="M0 0 C1 3 1 3 0 6 C0.38932856 8.14255793 0.38932856 8.14255793 1 10 C-1.97 9.505 -1.97 9.505 -5 9 C-5 10.32 -5 11.64 -5 13 C-2.10112882 12.96688725 0.79016622 12.89962106 3.6875 12.8125 C4.50412109 12.80669922 5.32074219 12.80089844 6.16210938 12.79492188 C10.53928325 12.63542971 12.4689118 12.41566412 16.01953125 9.63671875 C18.14272557 7.0999932 18.14272557 7.0999932 19 4 C19.99 3.67 20.98 3.34 22 3 C20.92598892 5.91517292 20.22189824 7.77810176 18 10 C17.34 11.65 16.68 13.3 16 15 C7.75 15 -0.5 15 -9 15 C-7.36050837 10.90127093 -5.89848388 8.19233872 -3.375 4.6875 C-2.74335937 3.80449219 -2.11171875 2.92148438 -1.4609375 2.01171875 C-0.97882813 1.34785156 -0.49671875 0.68398437 0 0 Z " fill="#4CAFE4" transform="translate(79,111)"/>
<path d="M0 0 C7.45864366 13.94705725 2.74756759 35.47854417 -1 50 C-2.37105396 53.88397078 -3.97036457 57.42397567 -6 61 C-6.67214794 62.33057858 -7.34060264 63.66305672 -8 65 C-9 62 -9 62 -8.2578125 59.984375 C-7.88398438 59.24703125 -7.51015625 58.5096875 -7.125 57.75 C-5.70820398 54.78055081 -4.72689387 52.27531986 -4.375 49 C-4.25125 48.01 -4.1275 47.02 -4 46 C-3.01 45.505 -3.01 45.505 -2 45 C-1.48557417 42.69778566 -1.13966701 40.52412385 -0.875 38.1875 C-0.79008301 37.46570557 -0.70516602 36.74391113 -0.61767578 36.00024414 C0.59413991 24.06129943 0.16530707 11.98221963 0 0 Z " fill="#2CA2E0" transform="translate(197,80)"/>
<path d="M0 0 C2.31 0 4.62 0 7 0 C6.4740625 0.86625 6.4740625 0.86625 5.9375 1.75 C4.85082593 4.35801776 5.06934867 5.39417629 6 8 C4.35 8 2.7 8 1 8 C0.9175 8.5775 0.835 9.155 0.75 9.75 C-0.20531013 12.6159304 -1.78469173 13.9990764 -4 16 C-4 12.36804504 -3.04546845 11.25286089 -1 8.3125 C-0.443125 7.50425781 0.11375 6.69601563 0.6875 5.86328125 C1.120625 5.24839844 1.55375 4.63351563 2 4 C-9.69097034 2.99908577 -9.69097034 2.99908577 -19.78515625 7.515625 C-21.4594008 10.28825929 -22.7854028 13.00300608 -24 16 C-24.33 16 -24.66 16 -25 16 C-25 13.36 -25 10.72 -25 8 C-24.01 8 -23.02 8 -22 8 C-21.34 6.02 -20.68 4.04 -20 2 C-13.4 2 -6.8 2 0 2 C0 1.34 0 0.68 0 0 Z " fill="#2298DC" transform="translate(96,80)"/>
<path d="M0 0 C33.33 0 66.66 0 101 0 C100.34 1.32 99.68 2.64 99 4 C98.01 3.01 98.01 3.01 97 2 C93.92788111 1.78192685 90.94334028 1.68853362 87.86865234 1.68115234 C86.44906975 1.66608391 86.44906975 1.66608391 85.00080872 1.65071106 C81.86252468 1.61974016 78.72432647 1.60280537 75.5859375 1.5859375 C73.4140244 1.56723703 71.24211864 1.54766448 69.07022095 1.5272522 C63.34590986 1.47580652 57.62157518 1.43624747 51.89715576 1.39910889 C46.05898138 1.35914703 40.22090617 1.30801913 34.3828125 1.2578125 C22.92194454 1.16090603 11.46102074 1.07654853 0 1 C0 0.67 0 0.34 0 0 Z " fill="#1D92D9" transform="translate(50,140)"/>
<path d="M0 0 C0.33 0 0.66 0 1 0 C1 9.24 1 18.48 1 28 C0.67 27.34 0.34 26.68 0 26 C-3.24299151 28.38957269 -5.50902342 30.2047869 -7 34 C-8.29299264 30.12102207 -7.3871167 29.12101258 -5.75 25.4375 C-2.40010295 17.18872844 -1.21206284 8.78006499 0 0 Z " fill="#F2FCFB" transform="translate(199,108)"/>
<path d="M0 0 C4.29 0 8.58 0 13 0 C6.85714286 11.85714286 6.85714286 11.85714286 2 16 C1.20046862 12.71303767 0.90341064 11.28976808 2 8 C2.66 8 3.32 8 4 8 C3.835 7.360625 3.67 6.72125 3.5 6.0625 C3 4 3 4 3 3 C2.01 3 1.02 3 0 3 C0 2.01 0 1.02 0 0 Z " fill="#0C9DF2" transform="translate(47,112)"/>
<path d="M0 0 C0.33 0 0.66 0 1 0 C1.17015625 1.07636719 1.3403125 2.15273437 1.515625 3.26171875 C3.02105222 12.4506352 5.0570891 21.14622125 8 30 C8.6908933 32.32742269 9.34740074 34.66151933 10 37 C9.01 36.67 8.02 36.34 7 36 C5.80626911 33.4720993 4.96413304 30.89479025 4.0625 28.25 C3.711875 27.5075 3.36125 26.765 3 26 C2.01 25.67 1.02 25.34 0 25 C0 16.75 0 8.5 0 0 Z " fill="#DCF5FA" transform="translate(0,107)"/>
<path d="M0 0 C0.66 0.33 1.32 0.66 2 1 C1.34 2.32 0.68 3.64 0 5 C-1.65 5 -3.3 5 -5 5 C-5 5.66 -5 6.32 -5 7 C-15.2216107 11.77008499 -25.73762155 14.19417894 -37 14 C-33.52982329 11.68654886 -30.31598902 11.12542969 -26.3125 10.3125 C-12.1496227 7.27355659 -12.1496227 7.27355659 0 0 Z " fill="#CFF5FC" transform="translate(149,186)"/>
<path d="M0 0 C1.53166168 4.08443115 0.63081652 7.79455657 0 12 C-0.66 12 -1.32 12 -2 12 C-2.12375 12.598125 -2.2475 13.19625 -2.375 13.8125 C-3 16 -3 16 -5 19 C-5.99 19.33 -6.98 19.66 -8 20 C-9.42857119 21.40105576 -9.42857119 21.40105576 -10.6875 23.0625 C-11.8321875 24.5165625 -11.8321875 24.5165625 -13 26 C-13.99 25.67 -14.98 25.34 -16 25 C-15.48050781 24.38253906 -14.96101562 23.76507813 -14.42578125 23.12890625 C-9.93777229 17.67858853 -6.17044549 12.30486318 -3 6 C-2.401875 4.824375 -1.80375 3.64875 -1.1875 2.4375 C-0.795625 1.633125 -0.40375 0.82875 0 0 Z " fill="#D9F5FD" transform="translate(190,141)"/>
<path d="M0 0 C4.93835297 4.93835297 6.26064968 14.6972375 6.3125 21.5 C6.15418967 25.05318743 5.73363028 28.51525619 5 32 C4.34 31.67 3.68 31.34 3 31 C1.42862339 24.481697 0.80989464 17.8352858 0.99609375 11.14453125 C1.00292861 7.39219468 0.47220768 3.71863546 0 0 Z " fill="#099AF3" transform="translate(191,60)"/>
<path d="M0 0 C0.66 0.33 1.32 0.66 2 1 C1.236875 1.70125 0.47375 2.4025 -0.3125 3.125 C-2.96590478 5.96352604 -4.44000743 8.46949051 -6 12 C-5.01 11.67 -4.02 11.34 -3 11 C-3.33 11.99 -3.66 12.98 -4 14 C-5.65 14.33 -7.3 14.66 -9 15 C-8.67 13.35 -8.34 11.7 -8 10 C-8.66 10 -9.32 10 -10 10 C-10 10.99 -10 11.98 -10 13 C-10.66 13 -11.32 13 -12 13 C-12 13.66 -12 14.32 -12 15 C-12.99 15 -13.98 15 -15 15 C-14.67 16.65 -14.34 18.3 -14 20 C-14.66 20 -15.32 20 -16 20 C-16.33 19.34 -16.66 18.68 -17 18 C-17.66 17.67 -18.32 17.34 -19 17 C-13.04581129 10.78693352 -6.83086681 5.23367039 0 0 Z " fill="#0998ED" transform="translate(43,17)"/>
<path d="M0 0 C2.31 0.66 4.62 1.32 7 2 C7.0309375 3.11375 7.0309375 3.11375 7.0625 4.25 C8.14153866 7.41518007 8.62049262 7.61714128 11.4375 9.125 C12.05496094 9.41632813 12.67242187 9.70765625 13.30859375 10.0078125 C15 11 15 11 17 14 C17.103125 14.680625 17.20625 15.36125 17.3125 16.0625 C17.539375 16.701875 17.76625 17.34125 18 18 C20.37625345 19.18391223 20.37625345 19.18391223 23 20 C23.99 20.66 24.98 21.32 26 22 C26 22.66 26 23.32 26 24 C21.53560657 21.90669553 17.87836302 19.01063588 14 16 C13.01 15.2575 12.02 14.515 11 13.75 C6.69941199 10.13845647 3.2957918 5.51707506 0 1 C0 0.67 0 0.34 0 0 Z " fill="#269BE2" transform="translate(21,160)"/>
<path d="M0 0 C0.33 0 0.66 0 1 0 C1.31985731 6.71700347 0.4793824 11.75726932 -2 18 C-2.66 18 -3.32 18 -4 18 C-3.979375 19.258125 -3.95875 20.51625 -3.9375 21.8125 C-3.89113917 24.64051087 -4.08307039 26.24921116 -5 29 C-5.22797562 31.73289293 -5.41668187 34.45042204 -5.5625 37.1875 C-5.60568359 37.93708984 -5.64886719 38.68667969 -5.69335938 39.45898438 C-5.79922685 41.30578375 -5.9000976 43.15286834 -6 45 C-6.33 45 -6.66 45 -7 45 C-7.6357173 28.91282052 -5.51813682 15.17487624 0 0 Z " fill="#37A9E5" transform="translate(7,62)"/>
<path d="M0 0 C-0.18175781 0.55945313 -0.36351562 1.11890625 -0.55078125 1.6953125 C-2.85177492 9.03489231 -4.46934757 16.46615047 -6 24 C-6.33 24 -6.66 24 -7 24 C-7 16.41 -7 8.82 -7 1 C-4.53721199 -0.231394 -2.7204945 -0.07159196 0 0 Z " fill="#EDFBFA" transform="translate(7,64)"/>
<path d="M0 0 C2 0 2 0 4.32421875 2.14453125 C6.92550808 4.9205057 9.39582169 7.7498131 11.8125 10.6875 C12.60269531 11.64011719 13.39289063 12.59273437 14.20703125 13.57421875 C16 16 16 16 16 18 C15.34 18 14.68 18 14 18 C13.34 16.35 12.68 14.7 12 13 C10.02 13.33 8.04 13.66 6 14 C6 13.34 6 12.68 6 12 C4.68 11.67 3.36 11.34 2 11 C2.226875 10.2575 2.45375 9.515 2.6875 8.75 C3.30258426 5.95202843 3.30258426 5.95202843 1.5625 3.8125 C0.7890625 2.9153125 0.7890625 2.9153125 0 2 C0 1.34 0 0.68 0 0 Z " fill="#2B9DE4" transform="translate(166,26)"/>
<path d="M0 0 C0 6.34013406 -0.62592871 8.74041828 -4 14 C-4.99 14.495 -4.99 14.495 -6 15 C-6 14.34 -6 13.68 -6 13 C-6.99 13.495 -6.99 13.495 -8 14 C-9.99960012 14.039992 -12.00047242 14.04346799 -14 14 C-9.33333333 9.33333333 -4.66666667 4.66666667 0 0 Z M-4 7 C-3 9 -3 9 -3 9 Z " fill="#E8F5F5" transform="translate(173,167)"/>
<path d="M0 0 C-2.02940466 2.02940466 -3.34459102 2.97361851 -6 4 C-8.578125 3.9765625 -8.578125 3.9765625 -11.25 3.625 C-12.14203125 3.51414063 -13.0340625 3.40328125 -13.953125 3.2890625 C-14.62859375 3.19367188 -15.3040625 3.09828125 -16 3 C-16 3.66 -16 4.32 -16 5 C-17.7015625 5.2165625 -17.7015625 5.2165625 -19.4375 5.4375 C-22.80777201 5.61171478 -22.80777201 5.61171478 -24 7 C-26.67058851 7.14115161 -29.32432238 7.04247107 -32 7 C-28.67166693 4.78111128 -25.50236361 3.91253317 -21.6875 2.9375 C-21.03587891 2.76412109 -20.38425781 2.59074219 -19.71289062 2.41210938 C-12.9846383 0.65427769 -6.9142983 -0.11921204 0 0 Z " fill="#30A1DC" transform="translate(96,0)"/>
<path d="M0 0 C2.625 0.375 2.625 0.375 5 1 C5.125 7.75 5.125 7.75 4 10 C1.36 10 -1.28 10 -4 10 C-4 9.34 -4 8.68 -4 8 C-3.34 8 -2.68 8 -2 8 C-2.04125 7.05125 -2.0825 6.1025 -2.125 5.125 C-2 2 -2 2 0 0 Z " fill="#109DE8" transform="translate(121,114)"/>
<path d="M0 0 C2.91926519 2.63675566 4.09111127 4.23460384 5 8 C5.99 8.33 6.98 8.66 8 9 C7.01 9.33 6.02 9.66 5 10 C3.30485863 9.04906703 1.63631892 8.04892238 0 7 C-0.66 7 -1.32 7 -2 7 C-2.12375 7.61875 -2.2475 8.2375 -2.375 8.875 C-3 11 -3 11 -5 13 C-5 13.66 -5 14.32 -5 15 C-6.65 15 -8.3 15 -10 15 C-7.11962396 9.48438631 -4.16149223 4.63709134 0 0 Z " fill="#119AE8" transform="translate(90,96)"/>
<path d="M0 0 C5.80809084 0.51606623 10.25362419 2.86622312 15.3125 5.5625 C16.15466064 6.00706543 16.99682129 6.45163086 17.86450195 6.90966797 C24.02618033 10.2560298 29.19740995 13.83685515 34 19 C29.95170581 19 28.29817622 17.36233121 25 15.0625 C20.73674767 12.06010911 20.73674767 12.06010911 16 10 C15.67 9.34 15.34 8.68 15 8 C12.4939867 6.71947066 10.00204197 5.52518655 7.4375 4.375 C6.72658203 4.05015625 6.01566406 3.7253125 5.28320312 3.390625 C3.52470748 2.58809007 1.76267633 1.79331041 0 1 C0 0.67 0 0.34 0 0 Z " fill="#2D9BD6" transform="translate(132,6)"/>
<path d="M0 0 C10.08869495 -0.61246715 18.47189659 1.04800116 28 4 C23.69577494 5.31052767 20.0629466 4.45785552 15.75 3.5625 C15.00492188 3.41490234 14.25984375 3.26730469 13.4921875 3.11523438 C11.65992335 2.7511306 9.82973947 2.37658591 8 2 C8 2.66 8 3.32 8 4 C5.69 4 3.38 4 1 4 C0.67 2.68 0.34 1.36 0 0 Z " fill="#1D99E6" transform="translate(104,1)"/>
<path d="M0 0 C1.39649044 2.79298089 1.87695017 4.86222932 2 8 C-0.1875 10.875 -0.1875 10.875 -3 13 C-4.32 13 -5.64 13 -7 13 C-7.66 14.32 -8.32 15.64 -9 17 C-9.66 16.67 -10.32 16.34 -11 16 C-10.54109375 15.34773438 -10.0821875 14.69546875 -9.609375 14.0234375 C-6.3516602 9.38324709 -3.11614247 4.73653655 0 0 Z " fill="#E5F6F8" transform="translate(78,85)"/>
<path d="M0 0 C0.33 0 0.66 0 1 0 C1.06058594 0.90363281 1.12117187 1.80726562 1.18359375 2.73828125 C1.26738281 3.91777344 1.35117187 5.09726563 1.4375 6.3125 C1.55931641 8.07013672 1.55931641 8.07013672 1.68359375 9.86328125 C1.8867371 13.02590958 1.8867371 13.02590958 3 16 C3.03954234 18.33299825 3.04401732 20.66708189 3 23 C2.34 23.33 1.68 23.66 1 24 C-1.66311898 20.05268926 -1.26078811 16.00836364 -1.1875 11.4375 C-1.18685547 10.66986328 -1.18621094 9.90222656 -1.18554688 9.11132812 C-1.15979358 5.82921319 -1.04420321 3.13260963 0 0 Z " fill="#0D99EB" transform="translate(2,88)"/>
<path d="M0 0 C2.31 0 4.62 0 7 0 C6.649375 0.5775 6.29875 1.155 5.9375 1.75 C4.85082593 4.35801776 5.06934867 5.39417629 6 8 C4.35 8 2.7 8 1 8 C0.9175 8.5775 0.835 9.155 0.75 9.75 C-0.20531013 12.6159304 -1.78469173 13.9990764 -4 16 C-4 12.62268144 -3.54983086 12.0672036 -1.5625 9.5 C0.19743883 7.21358374 1.06651207 5.80046379 2 3 C0.68 2.67 -0.64 2.34 -2 2 C-1.34 2 -0.68 2 0 2 C0 1.34 0 0.68 0 0 Z " fill="#0F9AEA" transform="translate(96,80)"/>
<path d="M0 0 C4.15910006 0.76197253 8.17943747 1.86091254 12.25 3 C17.83734409 4.5333252 23.21601151 5.59410607 29 6 C29 6.33 29 6.66 29 7 C18.78413191 7.70861513 9.78177004 5.59610959 0 3 C0 2.01 0 1.02 0 0 Z " fill="#C5F8FE" transform="translate(63,193)"/>
<path d="M0 0 C2.475 0.495 2.475 0.495 5 1 C5 1.66 5 2.32 5 3 C6.32 3 7.64 3 9 3 C9 3.99 9 4.98 9 6 C9.61875 6.0825 10.2375 6.165 10.875 6.25 C13.66938743 7.23625439 13.716952 8.43390399 15 11 C15.66 11.12375 16.32 11.2475 17 11.375 C17.66 11.58125 18.32 11.7875 19 12 C20.25 15.0625 20.25 15.0625 21 18 C19.66102417 17.04956626 18.32894573 16.08940853 17 15.125 C16.2575 14.59132813 15.515 14.05765625 14.75 13.5078125 C14.1725 13.01023437 13.595 12.51265625 13 12 C13 11.34 13 10.68 13 10 C12.43796875 9.74347656 11.8759375 9.48695312 11.296875 9.22265625 C8.71960738 7.85074338 6.54832724 6.23635416 4.25 4.4375 C3.45078125 3.81746094 2.6515625 3.19742187 1.828125 2.55859375 C1.22484375 2.04425781 0.6215625 1.52992187 0 1 C0 0.67 0 0.34 0 0 Z " fill="#C7F2FB" transform="translate(155,16)"/>
<path d="M0 0 C6.625 -0.25 6.625 -0.25 10 2 C7.36 4.31 4.72 6.62 2 9 C-1 5 -1 5 -0.6875 2.25 C-0.460625 1.5075 -0.23375 0.765 0 0 Z " fill="#E9F8F9" transform="translate(33,16)"/>
<path d="M0 0 C2.13490285 2.84653713 4.19459011 5.68238243 6.1875 8.625 C6.71730469 9.40101563 7.24710938 10.17703125 7.79296875 10.9765625 C9 13 9 13 9 15 C7.68 14.67 6.36 14.34 5 14 C5 12.68 5 11.36 5 10 C3.02 10.66 1.04 11.32 -1 12 C-0.67 8.04 -0.34 4.08 0 0 Z " fill="#DDF7FC" transform="translate(10,144)"/>
<path d="M0 0 C0.33 0.99 0.66 1.98 1 3 C0.34 3.66 -0.32 4.32 -1 5 C-1 7.97 -1 10.94 -1 14 C12.86 14.495 12.86 14.495 27 15 C27 15.33 27 15.66 27 16 C17.1 16 7.2 16 -3 16 C-3 4 -3 4 0 0 Z " fill="#E8FEFF" transform="translate(53,123)"/>
<path d="M0 0 C0.5625 1.9375 0.5625 1.9375 1 4 C0.67 4.33 0.34 4.66 0 5 C0.08937803 6.52519276 0.24537146 8.04681929 0.4375 9.5625 C0.53933594 10.38878906 0.64117188 11.21507812 0.74609375 12.06640625 C0.82988281 12.70449219 0.91367188 13.34257813 1 14 C0.34 14 -0.32 14 -1 14 C-1.33 14.99 -1.66 15.98 -2 17 C-2 16.34 -2 15.68 -2 15 C-2.99 15.33 -3.98 15.66 -5 16 C-5.82200425 9.75276774 -2.92551394 5.28682163 0 0 Z " fill="#1998EA" transform="translate(13,50)"/>
<path d="M0 0 C6.27 0 12.54 0 19 0 C17.55244413 2.89511173 16.09685983 5.53127396 14.375 8.25 C13.92898437 8.95640625 13.48296875 9.6628125 13.0234375 10.390625 C12.51683594 11.18726562 12.51683594 11.18726562 12 12 C11.02081225 8.92443042 10.8501002 8.31407577 12.3125 5.25 C13.1478125 4.13625 13.1478125 4.13625 14 3 C14.66 3 15.32 3 16 3 C16 2.34 16 1.68 16 1 C10.72 1 5.44 1 0 1 C0 0.67 0 0.34 0 0 Z " fill="#C4F9FF" transform="translate(79,84)"/>
<path d="M0 0 C0.66 0.66 1.32 1.32 2 2 C1.46428571 5.53571429 1.46428571 5.53571429 0 7 C0.63808594 7.12117187 1.27617188 7.24234375 1.93359375 7.3671875 C3.17302734 7.61855469 3.17302734 7.61855469 4.4375 7.875 C5.26121094 8.03742188 6.08492187 8.19984375 6.93359375 8.3671875 C7.61550781 8.57601562 8.29742187 8.78484375 9 9 C9.33 9.66 9.66 10.32 10 11 C2.99995111 10.71311275 -1.91026866 9.49595688 -8 6 C-7.401875 5.855625 -6.80375 5.71125 -6.1875 5.5625 C-4.43849596 5.1127561 -2.71322977 4.57107659 -1 4 C-0.26676204 1.98491642 -0.26676204 1.98491642 0 0 Z " fill="#1B9AE3" transform="translate(62,183)"/>
<path d="M0 0 C0.33 0.66 0.66 1.32 1 2 C1.99 2.33 2.98 2.66 4 3 C3.67 4.32 3.34 5.64 3 7 C1.8553125 7.1546875 1.8553125 7.1546875 0.6875 7.3125 C-2.17059424 8.04364039 -3.15742885 8.76951913 -5 11 C-5.66 10.67 -6.32 10.34 -7 10 C-6.02223933 8.51990357 -5.0427506 7.04094856 -4.0625 5.5625 C-3.51722656 4.73878906 -2.97195312 3.91507812 -2.41015625 3.06640625 C-1 1 -1 1 0 0 Z " fill="#D5F3FA" transform="translate(114,96)"/>
<path d="M0 0 C0.94104399 3.40947475 1.22232049 5.59496435 0 9 C-4.03448276 12 -4.03448276 12 -7 12 C-7 12.66 -7 13.32 -7 14 C-7.66 14 -8.32 14 -9 14 C-7.45158425 10.65291949 -5.50894136 7.75332488 -3.375 4.75 C-2.74335937 3.85796875 -2.11171875 2.9659375 -1.4609375 2.046875 C-0.73777344 1.03367187 -0.73777344 1.03367187 0 0 Z " fill="#DAF5FB" transform="translate(128,76)"/>
<path d="M0 0 C0.66 0 1.32 0 2 0 C2.33 0.99 2.66 1.98 3 3 C3.66 3 4.32 3 5 3 C3.5140084 7.59306496 1.14985318 10.43569245 -2 14 C-2.6875 12.3125 -2.6875 12.3125 -3 10 C-2.0126546 8.32580562 -1.01187895 6.65948148 0 5 C0.25196129 2.29046449 0.25196129 2.29046449 0 0 Z " fill="#199BE7" transform="translate(178,151)"/>
<path d="M0 0 C-1.38264837 2.86867231 -2.92148553 5.56024032 -4.625 8.25 C-5.07101563 8.95640625 -5.51703125 9.6628125 -5.9765625 10.390625 C-6.48316406 11.18726562 -6.48316406 11.18726562 -7 12 C-7.33 10.68 -7.66 9.36 -8 8 C-7.34 8 -6.68 8 -6 8 C-6 7.34 -6 6.68 -6 6 C-6.66 6 -7.32 6 -8 6 C-8 5.01 -8 4.02 -8 3 C-5.0936485 0.19744677 -4.21174952 0 0 0 Z " fill="#D8F4FA" transform="translate(136,91)"/>
<path d="M0 0 C-0.59019077 4.20381497 -3.03666787 7.25857498 -5.4375 10.625 C-5.84548828 11.21023437 -6.25347656 11.79546875 -6.67382812 12.3984375 C-8.33518199 14.7617337 -9.9536227 16.9536227 -12 19 C-11.49231681 14.5577721 -9.84178232 12.3746165 -7 9 C-6.67 8.01 -6.34 7.02 -6 6 C-5.34 6 -4.68 6 -4 6 C-4 4.35 -4 2.7 -4 1 C-2 0 -2 0 0 0 Z " fill="#2498DB" transform="translate(126,77)"/>
<path d="M0 0 C0.99 0.33 1.98 0.66 3 1 C1.625 3 1.625 3 0 5 C-0.66 5 -1.32 5 -2 5 C-2.2475 5.70125 -2.495 6.4025 -2.75 7.125 C-4.16088026 10.37002459 -5.97895398 13.10316737 -8 16 C-8.66 14.68 -9.32 13.36 -10 12 C-9.01 12 -8.02 12 -7 12 C-6.896875 11.46375 -6.79375 10.9275 -6.6875 10.375 C-5.36735825 5.81451031 -3.99189076 2.66126051 0 0 Z " fill="#DBF7FC" transform="translate(24,31)"/>
<path d="M0 0 C0.66 0.33 1.32 0.66 2 1 C0.7143824 3.14967221 -0.57807905 5.29466349 -1.875 7.4375 C-2.23980469 8.04916016 -2.60460937 8.66082031 -2.98046875 9.29101562 C-5.7734375 13.88671875 -5.7734375 13.88671875 -8 15 C-7.67 12.36 -7.34 9.72 -7 7 C-6.195625 6.7525 -5.39125 6.505 -4.5625 6.25 C-1.83364774 5.28621485 -1.83364774 5.28621485 -1.25 2.9375 C-1.1675 2.298125 -1.085 1.65875 -1 1 C-0.67 0.67 -0.34 0.34 0 0 Z " fill="#D8F7FD" transform="translate(145,74)"/>
<path d="M0 0 C1.31538327 4.15771494 0.34433068 6.8879297 -1 11 C-1.66 11 -2.32 11 -3 11 C-3.33 12.32 -3.66 13.64 -4 15 C-4.99 15 -5.98 15 -7 15 C-5.63408831 11.45756548 -4.09068516 8.07372071 -2.375 4.6875 C-1.70597656 3.36298828 -1.70597656 3.36298828 -1.0234375 2.01171875 C-0.68570313 1.34785156 -0.34796875 0.68398437 0 0 Z " fill="#C6F1FB" transform="translate(190,141)"/>
<path d="M0 0 C1.134375 0.020625 2.26875 0.04125 3.4375 0.0625 C3.4375 0.7225 3.4375 1.3825 3.4375 2.0625 C-0.49107754 3.91381483 -3.55025112 4.28254943 -7.875 4.1875 C-8.94363281 4.16945312 -10.01226562 4.15140625 -11.11328125 4.1328125 C-11.92152344 4.10960937 -12.72976562 4.08640625 -13.5625 4.0625 C-10.80322656 1.30322656 -8.35095948 1.54466757 -4.5625 1.0625 C-3.5625 0.0625 -3.5625 0.0625 0 0 Z " fill="#0798ED" transform="translate(108.5625,194.9375)"/>
<path d="M0 0 C1.32 0.33 2.64 0.66 4 1 C2.6062718 5.43458973 0.39417765 7.87378374 -3 11 C-3.79953138 7.71303767 -4.09658936 6.28976808 -3 3 C-2.01 3 -1.02 3 0 3 C0 2.01 0 1.02 0 0 Z " fill="#1D9AE9" transform="translate(52,117)"/>
<path d="M0 0 C1.60495567 0.11442461 3.20898119 0.24194694 4.8125 0.375 C5.70582031 0.44460938 6.59914062 0.51421875 7.51953125 0.5859375 C10 1 10 1 13 3 C14.1875 5.625 14.1875 5.625 15 8 C11.45756548 6.63408831 8.07372071 5.09068516 4.6875 3.375 C3.80449219 2.92898437 2.92148438 2.48296875 2.01171875 2.0234375 C1.34785156 1.68570312 0.68398437 1.34796875 0 1 C0 0.67 0 0.34 0 0 Z " fill="#CEF3FD" transform="translate(140,8)"/>
<path d="M0 0 C0.66 0.33 1.32 0.66 2 1 C0.58854052 3.08702983 -0.82888531 5.16955938 -2.25 7.25 C-2.64574219 7.83652344 -3.04148437 8.42304687 -3.44921875 9.02734375 C-5.72308861 12.34495715 -8.03209703 15.24992477 -11 18 C-9.5482621 12.33822218 -6.68441695 7.50540116 -3 3 C-2.34 3 -1.68 3 -1 3 C-0.67 2.01 -0.34 1.02 0 0 Z " fill="#299AD8" transform="translate(112,96)"/>
<path d="M0 0 C1.98 0.99 1.98 0.99 4 2 C4.75 4.625 4.75 4.625 5 7 C6.65 7 8.3 7 10 7 C8.25 11.875 8.25 11.875 6 13 C4.02 8.71 2.04 4.42 0 0 Z " fill="#DDF7FD" transform="translate(186,49)"/>
<path d="M0 0 C4.50416844 3.67006318 6.76790201 8.74908096 9 14 C9 14.66 9 15.32 9 16 C8.01 15.67 7.02 15.34 6 15 C5.67 13.35 5.34 11.7 5 10 C4.01 10 3.02 10 2 10 C1.34 6.7 0.68 3.4 0 0 Z " fill="#2B9EDE" transform="translate(182,44)"/>
<path d="M0 0 C3.91939465 3.80411834 7.49102731 7.81576108 11 12 C10.01 12.495 10.01 12.495 9 13 C8.67 12.34 8.34 11.68 8 11 C7.01 10.67 6.02 10.34 5 10 C5 9.01 5 8.02 5 7 C3.7934375 6.566875 3.7934375 6.566875 2.5625 6.125 C0 5 0 5 -1 3 C-0.67 2.01 -0.34 1.02 0 0 Z " fill="#CAF2FB" transform="translate(19,159)"/>
<path d="M0 0 C0.350625 0.45375 0.70125 0.9075 1.0625 1.375 C3.05559552 3.27902566 3.05559552 3.27902566 6.5 3.9375 C10 5 10 5 11.9375 7 C13 9 13 9 13 11 C12.34 11 11.68 11 11 11 C10.34 9.35 9.68 7.7 9 6 C7.02 6.33 5.04 6.66 3 7 C3 6.34 3 5.68 3 5 C1.68 4.67 0.36 4.34 -1 4 C-0.67 2.68 -0.34 1.36 0 0 Z " fill="#189BEA" transform="translate(169,33)"/>
<path d="M0 0 C2.64 0 5.28 0 8 0 C9.03352411 5.39729256 9.33070829 10.6077386 8 16 C7.34 16.33 6.68 16.66 6 17 C6 12.05 6 7.1 6 2 C3.03 1.505 3.03 1.505 0 1 C0 0.67 0 0.34 0 0 Z " fill="#1099ED" transform="translate(144,58)"/>
<path d="M0 0 C-2.01888523 2.01888523 -3.36434013 2.96659379 -6 4 C-8.359375 3.9765625 -8.359375 3.9765625 -10.75 3.625 C-11.54921875 3.51414063 -12.3484375 3.40328125 -13.171875 3.2890625 C-13.77515625 3.19367188 -14.3784375 3.09828125 -15 3 C-14.67 2.34 -14.34 1.68 -14 1 C-9.31604754 -0.14242743 -4.78644729 -0.08252495 0 0 Z " fill="#28A5EC" transform="translate(96,0)"/>
<path d="M0 0 C0.91007812 0.00902344 1.82015625 0.01804687 2.7578125 0.02734375 C3.45648438 0.03894531 4.15515625 0.05054687 4.875 0.0625 C4.875 1.3825 4.875 2.7025 4.875 4.0625 C2.921875 3.80208333 0.96875 3.54166667 -0.984375 3.28125 C-3.42958395 2.99472643 -3.42958395 2.99472643 -7.125 3.0625 C-7.125 2.4025 -7.125 1.7425 -7.125 1.0625 C-4.60024538 -0.19987731 -2.81299534 -0.03606404 0 0 Z " fill="#1198EB" transform="translate(57.125,74.9375)"/>
<path d="M0 0 C6.75 -0.125 6.75 -0.125 9 1 C8.67 5.95 8.34 10.9 8 16 C7.67 16 7.34 16 7 16 C6.67 11.71 6.34 7.42 6 3 C4.02 2.34 2.04 1.68 0 1 C0 0.67 0 0.34 0 0 Z " fill="#1597E6" transform="translate(144,123)"/>
<path d="M0 0 C0.99 0.33 1.98 0.66 3 1 C3 1.66 3 2.32 3 3 C2.01 3.495 2.01 3.495 1 4 C0.34786708 6.02463255 0.34786708 6.02463255 0 8 C-1.65 8 -3.3 8 -5 8 C-5 7.34 -5 6.68 -5 6 C-4.34 6 -3.68 6 -3 6 C-3 4.68 -3 3.36 -3 2 C-2.01 2 -1.02 2 0 2 C0 1.34 0 0.68 0 0 Z " fill="#069EFA" transform="translate(122,116)"/>
<path d="M0 0 C1.32 0 2.64 0 4 0 C4 1.32 4 2.64 4 4 C4.99 4 5.98 4 7 4 C7.99 6.97 8.98 9.94 10 13 C5.79759989 9.28249221 3.00217321 4.68339021 0 0 Z " fill="#CDF5FD" transform="translate(176,35)"/>
<path d="M0 0 C0.33 0.66 0.66 1.32 1 2 C0.67 2.99 0.34 3.98 0 5 C-0.66 5 -1.32 5 -2 5 C-2 5.66 -2 6.32 -2 7 C-2.99 7 -3.98 7 -5 7 C-4.67 8.65 -4.34 10.3 -4 12 C-4.66 12 -5.32 12 -6 12 C-6.33 11.34 -6.66 10.68 -7 10 C-7.66 9.67 -8.32 9.34 -9 9 C-6.03 6.03 -3.06 3.06 0 0 Z " fill="#2FA6E2" transform="translate(33,25)"/>
<path d="M0 0 C0.33 0 0.66 0 1 0 C1.5497272 5.63470383 -0.04952165 8.38987758 -3 13 C-3.66 13 -4.32 13 -5 13 C-4.42415568 10.61435923 -3.77772405 8.33317216 -3 6 C-2.34 6 -1.68 6 -1 6 C-1.020625 5.195625 -1.04125 4.39125 -1.0625 3.5625 C-1 1 -1 1 0 0 Z " fill="#FDFBEF" transform="translate(191,147)"/>
<path d="M0 0 C0.33 0 0.66 0 1 0 C1.125 2.875 1.125 2.875 1 6 C0.34 6.66 -0.32 7.32 -1 8 C-1 8.66 -1 9.32 -1 10 C-2.65 10 -4.3 10 -6 10 C-5.18957164 8.51969728 -4.37659652 7.04078858 -3.5625 5.5625 C-2.88380859 4.32693359 -2.88380859 4.32693359 -2.19140625 3.06640625 C-1 1 -1 1 0 0 Z " fill="#2D9EE6" transform="translate(86,101)"/>
<path d="M0 0 C2.69378789 2.69378789 3.13672837 5.22574981 4.1875 8.875 C4.55230469 10.10992187 4.91710937 11.34484375 5.29296875 12.6171875 C5.93501035 15.68905505 6.12677877 17.14357992 5 20 C4.80664062 19.34773438 4.61328125 18.69546875 4.4140625 18.0234375 C3.27407476 14.19714202 2.13793385 10.39202251 0.8125 6.625 C0 4 0 4 0 0 Z " fill="#2E9BE0" transform="translate(191,60)"/>
<path d="M0 0 C0.66 0.33 1.32 0.66 2 1 C1.195625 1.45375 0.39125 1.9075 -0.4375 2.375 C-3.08856572 3.74725665 -3.08856572 3.74725665 -4 6 C-6.06640625 6.6328125 -6.06640625 6.6328125 -8.5625 7.125 C-9.38878906 7.29257812 -10.21507812 7.46015625 -11.06640625 7.6328125 C-11.70449219 7.75398438 -12.34257813 7.87515625 -13 8 C-10.61664713 5.32561064 -8.12963852 3.84841988 -4.9375 2.25 C-4.05964844 1.80140625 -3.18179688 1.3528125 -2.27734375 0.890625 C-1.52582031 0.59671875 -0.77429687 0.3028125 0 0 Z " fill="#349EE0" transform="translate(58,9)"/>
<path d="M0 0 C1 3 1 3 0 6 C0.38932856 8.14255793 0.38932856 8.14255793 1 10 C-0.65 9.67 -2.3 9.34 -4 9 C-3.46930939 5.17902761 -2.50298434 2.93828597 0 0 Z " fill="#28A1E6" transform="translate(79,111)"/>
<path d="M0 0 C0.33 0 0.66 0 1 0 C1.66 5.61 2.32 11.22 3 17 C2.34 17 1.68 17 1 17 C-0.18681726 13.43954823 -0.09689832 10.56191663 -0.0625 6.8125 C-0.05347656 5.54019531 -0.04445312 4.26789063 -0.03515625 2.95703125 C-0.02355469 1.98121094 -0.01195312 1.00539063 0 0 Z " fill="#B9F2FC" transform="translate(0,107)"/>
<path d="M0 0 C0.66 0.33 1.32 0.66 2 1 C1.2890625 2.953125 1.2890625 2.953125 0 5 C-2.1640625 5.609375 -2.1640625 5.609375 -4.625 5.75 C-5.44226563 5.80671875 -6.25953125 5.8634375 -7.1015625 5.921875 C-7.72804687 5.94765625 -8.35453125 5.9734375 -9 6 C-6.12050853 3.76039553 -3.23257974 1.70135776 0 0 Z " fill="#CAF3FA" transform="translate(149,186)"/>
<path d="M0 0 C0.33 0 0.66 0 1 0 C1 2.64 1 5.28 1 8 C-0.65 8.33 -2.3 8.66 -4 9 C-2.94124926 5.59687262 -1.99097846 2.98646769 0 0 Z " fill="#D8F6FB" transform="translate(99,117)"/>
<path d="M0 0 C0.33 0 0.66 0 1 0 C1.0810206 2.10353495 1.13919907 4.20795952 1.1875 6.3125 C1.22230469 7.48425781 1.25710937 8.65601562 1.29296875 9.86328125 C1 13 1 13 -2 16 C-1.34 10.72 -0.68 5.44 0 0 Z " fill="#BCF2FA" transform="translate(199,108)"/>
<path d="M0 0 C0.66 0.33 1.32 0.66 2 1 C0.02 3.97 -1.96 6.94 -4 10 C-5.07349791 5.70600835 -4.79682816 4.80504787 -3 1 C-2.01 1.33 -1.02 1.66 0 2 C0 1.34 0 0.68 0 0 Z " fill="#D4F4FC" transform="translate(121,111)"/>
<path d="M0 0 C0.99 0 1.98 0 3 0 C3.02712066 1.43739513 3.04645067 2.87493863 3.0625 4.3125 C3.07410156 5.11300781 3.08570313 5.91351563 3.09765625 6.73828125 C3 9 3 9 2 12 C1.34 12 0.68 12 0 12 C0 10.02 0 8.04 0 6 C0.66 6 1.32 6 2 6 C2 4.68 2 3.36 2 2 C1.34 2 0.68 2 0 2 C0 1.34 0 0.68 0 0 Z " fill="#FDF9EA" transform="translate(144,62)"/>
<path d="M0 0 C0.68359375 1.765625 0.68359375 1.765625 1 4 C-0.21484375 5.921875 -0.21484375 5.921875 -1.9375 7.75 C-2.50339844 8.36359375 -3.06929687 8.9771875 -3.65234375 9.609375 C-4.31943359 10.29773438 -4.31943359 10.29773438 -5 11 C-5 7.58678765 -4.33132534 6.60527115 -2.5 3.8125 C-2.0359375 3.09707031 -1.571875 2.38164063 -1.09375 1.64453125 C-0.7328125 1.10183594 -0.371875 0.55914062 0 0 Z " fill="#C4F3FC" transform="translate(60,112)"/>
<path d="M0 0 C1.65 0 3.3 0 5 0 C4.01 3.3 3.02 6.6 2 10 C1.67 10 1.34 10 1 10 C0.67 6.7 0.34 3.4 0 0 Z " fill="#D3F4FD" transform="translate(2,64)"/>
<path d="M0 0 C3.34373475 0.55728913 6.03312999 1.35173889 9 3 C8.67 3.66 8.34 4.32 8 5 C5.36 4.34 2.72 3.68 0 3 C0 2.01 0 1.02 0 0 Z " fill="#D5F6FC" transform="translate(63,193)"/>
<path d="M0 0 C2.3431213 0.25561323 4.67843403 0.59270772 7 1 C7.33 1.66 7.66 2.32 8 3 C8.99 3.66 9.98 4.32 11 5 C3.49230769 4.50769231 3.49230769 4.50769231 1 1.9375 C0.67 1.298125 0.34 0.65875 0 0 Z " fill="#FAFAED" transform="translate(45,187)"/>
<path d="M0 0 C0 1.32 0 2.64 0 4 C-2.64 4 -5.28 4 -8 4 C-6 1 -6 1 -4 0.3125 C-2 0 -2 0 0 0 Z " fill="#FDF8EC" transform="translate(167,180)"/>
<path d="M0 0 C0.66 1.32 1.32 2.64 2 4 C-0.96160056 7.12613393 -3.09567131 9.04783565 -7 11 C-4.69 7.37 -2.38 3.74 0 0 Z " fill="#CEF4FC" transform="translate(74,91)"/>
<path d="M0 0 C0 0.99 0 1.98 0 3 C-4.455 3.495 -4.455 3.495 -9 4 C-7.04565548 0.09131097 -4.13449517 0 0 0 Z " fill="#FBFCED" transform="translate(157,188)"/>
<path d="M0 0 C0 3.90838866 -1.50567876 5.11594107 -4 8 C-5.32 7.67 -6.64 7.34 -8 7 C-5.36 4.69 -2.72 2.38 0 0 Z " fill="#BBEEFC" transform="translate(167,173)"/>
<path d="M0 0 C1.98 0 3.96 0 6 0 C4.515 2.475 4.515 2.475 3 5 C2.01 4.67 1.02 4.34 0 4 C0 2.68 0 1.36 0 0 Z " fill="#FDFAEB" transform="translate(24,24)"/>
<path d="M0 0 C0.33 0.99 0.66 1.98 1 3 C0.34 3.66 -0.32 4.32 -1 5 C-1.46290221 7.66242821 -1.46290221 7.66242821 -1.625 10.625 C-1.69976562 11.62789062 -1.77453125 12.63078125 -1.8515625 13.6640625 C-1.90054688 14.43492187 -1.94953125 15.20578125 -2 16 C-2.33 16 -2.66 16 -3 16 C-3.08133791 14.08404032 -3.13934367 12.16708068 -3.1875 10.25 C-3.22230469 9.18265625 -3.25710937 8.1153125 -3.29296875 7.015625 C-2.97082786 3.69972145 -2.22851086 2.40983327 0 0 Z " fill="#CCF8FE" transform="translate(53,123)"/>
<path d="M0 0 C1.98 0 3.96 0 6 0 C4.02 2.97 4.02 2.97 2 6 C0 3 0 3 0 0 Z " fill="#DDF8FC" transform="translate(84,96)"/>
<path d="M0 0 C0.66 0 1.32 0 2 0 C1.42647107 3.87132028 -0.48704352 6.08172796 -3 9 C-2.25 2.25 -2.25 2.25 0 0 Z " fill="#D0F2FC" transform="translate(93,87)"/>
<path d="M0 0 C3.125 -0.1875 3.125 -0.1875 6 0 C6 0.99 6 1.98 6 3 C3.36 3 0.72 3 -2 3 C-1.34 2.01 -0.68 1.02 0 0 Z " fill="#079EED" transform="translate(90,5)"/>
<path d="M0 0 C2.31 0.66 4.62 1.32 7 2 C7 3.32 7 4.64 7 6 C5.1875 5.8125 5.1875 5.8125 3 5 C1.25 2.4375 1.25 2.4375 0 0 Z " fill="#1798E1" transform="translate(21,160)"/>
<path d="M0 0 C2.15377564 2.62198774 3.40072174 4.64404172 4 8 C2.68 8 1.36 8 0 8 C-0.79953138 4.71303767 -1.09658936 3.28976808 0 0 Z " fill="#F7FBF0" transform="translate(4,136)"/>
<path d="M0 0 C1.24546405 2.49092811 0.7767578 3.41080733 0 6 C1.98 6 3.96 6 6 6 C6 6.33 6 6.66 6 7 C3.03 7 0.06 7 -3 7 C-1.125 1.125 -1.125 1.125 0 0 Z " fill="#359EDC" transform="translate(74,118)"/>
<path d="M0 0 C0.33 0.66 0.66 1.32 1 2 C-0.1875 5.5625 -0.1875 5.5625 -2 9 C-4.11328125 9.71484375 -4.11328125 9.71484375 -6 10 C-5.18957164 8.51969728 -4.37659652 7.04078858 -3.5625 5.5625 C-2.88380859 4.32693359 -2.88380859 4.32693359 -2.19140625 3.06640625 C-1 1 -1 1 0 0 Z " fill="#C6F1FC" transform="translate(106,107)"/>
<path d="M0 0 C0.66 0 1.32 0 2 0 C4.13586678 3.20380017 4.23132175 4.01939967 4.125 7.6875 C4.10695312 8.49574219 4.08890625 9.30398437 4.0703125 10.13671875 C4.03550781 11.05904297 4.03550781 11.05904297 4 12 C3.67 12 3.34 12 3 12 C2.01 8.04 1.02 4.08 0 0 Z " fill="#C0F0FD" transform="translate(193,64)"/>
<path d="M0 0 C0.66 0.33 1.32 0.66 2 1 C-3.14285714 6.57142857 -3.14285714 6.57142857 -7 7 C-4.78071806 4.09197539 -3.07030857 2.04687238 0 0 Z " fill="#39A3D6" transform="translate(43,17)"/>
<path d="M0 0 C3.91211733 1.15585285 6.8745041 2.35534962 10 5 C6.28111761 4.49287967 3.26545761 3.88391785 0 2 C0 1.34 0 0.68 0 0 Z " fill="#CDF4FD" transform="translate(52,188)"/>
<path d="M0 0 C0.66 0 1.32 0 2 0 C3.4606285 2.64738916 4 3.89448334 4 7 C3.34 7 2.68 7 2 7 C0.3125 5.1875 0.3125 5.1875 -1 3 C-0.67 2.01 -0.34 1.02 0 0 Z " fill="#FDF8F0" transform="translate(68,103)"/>
<path d="M0 0 C0.8125 1.6875 0.8125 1.6875 1 4 C-1.4375 6.75 -1.4375 6.75 -4 9 C-4 5.00095031 -2.27413033 3.19799578 0 0 Z " fill="#319BD9" transform="translate(96,87)"/>
<path d="M0 0 C0.99 0.33 1.98 0.66 3 1 C2.34 2.32 1.68 3.64 1 5 C-0.32 5 -1.64 5 -3 5 C-1.125 1.125 -1.125 1.125 0 0 Z " fill="#079CEC" transform="translate(188,59)"/>
<path d="M0 0 C3.96 1.98 3.96 1.98 8 4 C4.29847322 4.92538169 3.36541838 5.08174162 0 4 C0 2.68 0 1.36 0 0 Z " fill="#D5F6FC" transform="translate(44,183)"/>
<path d="M0 0 C0.66 1.32 1.32 2.64 2 4 C0.625 7.75 0.625 7.75 -1 11 C-1.66 10.67 -2.32 10.34 -3 10 C-2.01 6.7 -1.02 3.4 0 0 Z " fill="#BBEFFC" transform="translate(194,131)"/>
<path d="M0 0 C2.475 0.99 2.475 0.99 5 2 C4.67 3.65 4.34 5.3 4 7 C3.34 7 2.68 7 2 7 C1.34 4.69 0.68 2.38 0 0 Z " fill="#FEF7F1" transform="translate(112,112)"/>
<path d="M0 0 C0.66 0.33 1.32 0.66 2 1 C-0.475 4.465 -0.475 4.465 -3 8 C-3.33 6.68 -3.66 5.36 -4 4 C-3.34 4 -2.68 4 -2 4 C-2 3.01 -2 2.02 -2 1 C-1.34 0.67 -0.68 0.34 0 0 Z " fill="#2B9AD9" transform="translate(69,96)"/>
<path d="M0 0 C0.33 0.99 0.66 1.98 1 3 C-2.75 6 -2.75 6 -5 6 C-3.63016497 2.83884224 -3.0109362 2.0072908 0 0 Z " fill="#24A1EC" transform="translate(141,86)"/>
<path d="M0 0 C0.33 0.99 0.66 1.98 1 3 C-2.26760563 8.63380282 -2.26760563 8.63380282 -5 10 C-3.84414715 6.08788267 -2.64465038 3.1254959 0 0 Z " fill="#3C9CD4" transform="translate(145,77)"/>
<path d="M0 0 C1.98 0 3.96 0 6 0 C3.06171403 2.50298434 0.82097239 3.46930939 -3 4 C-2.34 3.67 -1.68 3.34 -1 3 C-0.67 2.01 -0.34 1.02 0 0 Z " fill="#2D9ED4" transform="translate(140,188)"/>
<path d="M0 0 C5.875 4.625 5.875 4.625 7 8 C6.34 8 5.68 8 5 8 C4.67 7.34 4.34 6.68 4 6 C3.01 5.67 2.02 5.34 1 5 C0.67 3.35 0.34 1.7 0 0 Z " fill="#B9EDFB" transform="translate(23,164)"/>
<path d="M0 0 C2 2 2 2 2 5 C0.68 5.33 -0.64 5.66 -2 6 C-1.125 1.125 -1.125 1.125 0 0 Z " fill="#FFF7EC" transform="translate(182,162)"/>
<path d="M0 0 C0.66 0 1.32 0 2 0 C5.11450382 4.15267176 5.11450382 4.15267176 4.6875 7.3125 C4.460625 7.869375 4.23375 8.42625 4 9 C0 2.25 0 2.25 0 0 Z " fill="#3F9ED9" transform="translate(11,144)"/>
<path d="M0 0 C1.98 0 3.96 0 6 0 C5.67 1.32 5.34 2.64 5 4 C4.01 4 3.02 4 2 4 C2 3.01 2 2.02 2 1 C1.34 0.67 0.68 0.34 0 0 Z " fill="#02A0E9" transform="translate(97,88)"/>
<path d="M0 0 C0.33 1.32 0.66 2.64 1 4 C-0.9375 6.25 -0.9375 6.25 -3 8 C-3.66 7.67 -4.32 7.34 -5 7 C-3.35 4.69 -1.7 2.38 0 0 Z " fill="#BDF2FE" transform="translate(128,76)"/>
</svg>
