<?xml version="1.0" encoding="UTF-8"?>
<svg version="1.1" xmlns="http://www.w3.org/2000/svg" width="225" height="225">
<path d="M0 0 C74.25 0 148.5 0 225 0 C225 74.25 225 148.5 225 225 C150.75 225 76.5 225 0 225 C0 150.75 0 76.5 0 0 Z " fill="#FDFDFE" transform="translate(0,0)"/>
<path d="M0 0 C0.9335733 -0.00426498 1.86714661 -0.00852997 2.82901001 -0.01292419 C3.85653381 -0.01247101 4.88405762 -0.01201782 5.94271851 -0.0115509 C7.56248093 -0.01658882 7.56248093 -0.01658882 9.21496582 -0.02172852 C12.80179989 -0.03126357 16.38858737 -0.0331832 19.97543335 -0.03425598 C22.46447774 -0.03746784 24.95352193 -0.04083186 27.44256592 -0.04434204 C32.6698334 -0.05034044 37.89708903 -0.05222405 43.12435913 -0.05158997 C48.48832166 -0.05105672 53.85221203 -0.05807438 59.21615601 -0.07209778 C65.68940035 -0.08878038 72.16257989 -0.09564508 78.63584518 -0.09498024 C81.1021397 -0.09615924 83.5684349 -0.10057653 86.03471756 -0.10831261 C89.49110547 -0.11813519 92.94726422 -0.11522485 96.40365601 -0.10920715 C97.92672363 -0.11763641 97.92672363 -0.11763641 99.4805603 -0.12623596 C117.062908 -0.04864569 132.28364934 7.81401614 144.56137085 20.13371277 C156.70572749 32.70418718 163.12120669 47.71096971 163.24887085 65.25871277 C162.90170902 84.93462013 155.02704098 100.46651022 141.09677124 114.13175964 C130.39337799 124.13371277 130.39337799 124.13371277 124.56137085 124.13371277 C124.56137085 124.79371277 124.56137085 125.45371277 124.56137085 126.13371277 C125.27937866 126.40312683 125.99738647 126.67254089 126.7371521 126.95011902 C141.03104412 132.9405053 151.45777717 144.6855831 157.70199585 158.69230652 C158.84996292 161.9535766 158.82013688 164.70506287 158.56137085 168.13371277 C156.16091405 170.53416957 155.62909473 170.3880553 152.35484314 170.40786743 C151.47294312 170.41784256 150.59104309 170.42781769 149.68241882 170.43809509 C148.22753304 170.4390921 148.22753304 170.4390921 146.74325562 170.44010925 C145.21385849 170.45259453 145.21385849 170.45259453 143.65356445 170.46533203 C140.26993029 170.48950527 136.88648856 170.49821266 133.5027771 170.50480652 C131.15869588 170.51376651 128.81461527 170.52288822 126.47053528 170.53216553 C121.55182502 170.54867749 116.63318302 170.55635979 111.71444702 170.55924988 C105.40103868 170.56463917 99.08826851 170.60233311 92.77504063 170.64799404 C87.93241513 170.67768381 83.08994488 170.68497166 78.24723625 170.68597603 C75.91912853 170.69019358 73.59102098 170.70268878 71.2630024 170.72349358 C68.01114598 170.75024278 64.76078953 170.74563135 61.50888062 170.733078 C60.05703117 170.75532944 60.05703117 170.75532944 58.57585144 170.7780304 C56.13404525 170.75108297 53.93828898 170.69262138 51.56137085 170.13371277 C49.5202179 167.75518799 49.5202179 167.75518799 48.56137085 165.13371277 C47.92328491 163.87494324 47.92328491 163.87494324 47.27230835 162.59074402 C46.83144897 161.71804871 46.3905896 160.84535339 45.93637085 159.94621277 C40.75393871 150.45148525 33.85208311 143.57590006 24.56137085 138.13371277 C23.36640991 137.36220886 23.36640991 137.36220886 22.14730835 136.57511902 C15.91731195 133.10250773 8.60035887 132.10194532 1.56137085 131.69621277 C-1.86168907 131.44429927 -3.19191267 131.29436536 -6.12612915 129.38371277 C-7.69706387 126.69068181 -7.92309264 125.20198153 -7.43862915 122.13371277 C-4.64208664 119.33717026 -2.46921062 119.6500696 1.43637085 119.25871277 C16.85493287 117.40280888 29.41373017 111.63249852 39.56137085 99.63371277 C49.93322543 85.91854976 53.24962409 72.03697477 51.16293335 54.85246277 C48.69904386 41.6690541 41.64559979 29.77012737 30.6199646 22.08293152 C19.88025846 15.14713547 10.29172132 11.88353444 -2.3487854 10.62590027 C-5.43862915 10.13371277 -5.43862915 10.13371277 -7.43862915 8.13371277 C-7.18862915 4.57121277 -7.18862915 4.57121277 -6.43862915 1.13371277 C-4.07015486 -0.05052438 -2.64214887 0.00544165 0 0 Z " fill="#0748DC" transform="translate(35.438629150390625,27.866287231445313)"/>
<path d="M0 0 C9.1017751 -0.0697343 18.20345718 -0.12292961 27.30544186 -0.15543652 C31.53258182 -0.17104394 35.75953803 -0.19219136 39.98657227 -0.22631836 C44.07146048 -0.25908863 48.15617273 -0.27688998 52.24118233 -0.28463173 C53.79398935 -0.29014371 55.34678754 -0.30090677 56.89951897 -0.31719017 C65.12977762 -0.40001072 72.32508486 -0.26584532 80 3 C81.04027344 3.42539062 82.08054687 3.85078125 83.15234375 4.2890625 C98.88856335 11.83715101 108.22577776 23.72719186 114 40 C115.26395896 44.40013594 115.22180522 48.63756664 115.25 53.1875 C115.270625 54.00025391 115.29125 54.81300781 115.3125 55.65039062 C115.40081847 69.52743094 108.06970566 83.97192086 98.48046875 93.75390625 C79.68506313 110.77336803 56.93080482 109.69923193 33.10028076 109.34332275 C29.24472993 109.29137779 25.38900596 109.26917129 21.53320312 109.24414062 C14.02167485 109.19115626 6.51098393 109.10628137 -1 109 C-1 108.34 -1 107.68 -1 107 C0.46130152 105.80520634 1.97136323 104.6698408 3.5 103.5625 C15.60511721 94.07331914 23.723845 79.30260449 25.78466797 64.07519531 C27.01101475 52.25666061 27.02191738 40.95691064 22 30 C21.59910156 29.0203125 21.19820312 28.040625 20.78515625 27.03125 C16.65072342 17.73177211 10.17019376 10.03943612 2.16015625 3.78125 C1.44730469 3.1934375 0.73445313 2.605625 0 2 C0 1.34 0 0.68 0 0 Z " fill="#F7F9FE" transform="translate(72,39)"/>
<path d="M0 0 C8.91957822 -0.06988063 17.83906046 -0.12300275 26.75885391 -0.15543652 C30.90183516 -0.17101253 35.04462745 -0.19210097 39.1875 -0.22631836 C43.1945961 -0.25920267 47.20151185 -0.27691345 51.2087326 -0.28463173 C52.72835881 -0.2901236 54.24797649 -0.30084592 55.76752472 -0.31719017 C72.98163685 -0.49477847 86.80187862 2.69951965 99.5 15.0625 C108 24.04079582 108 24.04079582 108 28 C79.29 28 50.58 28 21 28 C19.35 24.7 17.7 21.4 16 18 C11.43864551 11.45614868 6.18449411 6.00022928 0 1 C0 0.67 0 0.34 0 0 Z " fill="#FBFCFE" transform="translate(72,159)"/>
<path d="M0 0 C1.49164673 -0.00945648 1.49164673 -0.00945648 3.01342773 -0.019104 C4.09052002 -0.01505554 5.1676123 -0.01100708 6.27734375 -0.00683594 C7.37957275 -0.00874939 8.48180176 -0.01066284 9.61743164 -0.01263428 C11.95101143 -0.01399706 14.28459878 -0.01029416 16.61816406 -0.00195312 C20.20004222 0.00874485 23.78141878 -0.00184552 27.36328125 -0.01464844 C29.6263032 -0.01332686 31.88932483 -0.0107645 34.15234375 -0.00683594 C35.76798218 -0.01290863 35.76798218 -0.01290863 37.41625977 -0.019104 C38.41069092 -0.01279968 39.40512207 -0.00649536 40.4296875 0 C41.3074585 0.00159119 42.18522949 0.00318237 43.08959961 0.00482178 C45.21484375 0.25878906 45.21484375 0.25878906 47.21484375 2.25878906 C47.52734375 5.75878906 47.52734375 5.75878906 47.21484375 9.25878906 C44.02485608 11.38544751 43.18081557 11.51593315 39.515625 11.54931641 C38.56453857 11.56207611 37.61345215 11.57483582 36.63354492 11.58798218 C35.60849854 11.59020782 34.58345215 11.59243347 33.52734375 11.59472656 C31.94626831 11.60471176 31.94626831 11.60471176 30.33325195 11.61489868 C28.10402168 11.62502667 25.87476107 11.62971566 23.64550781 11.62939453 C20.22801073 11.6337722 16.81180013 11.67010379 13.39453125 11.70800781 C11.23047318 11.71387491 9.06640896 11.71784502 6.90234375 11.71972656 C5.87729736 11.7340976 4.85225098 11.74846863 3.79614258 11.76327515 C2.84505615 11.75712189 1.89396973 11.75096863 0.9140625 11.74462891 C0.07705811 11.74747894 -0.75994629 11.75032898 -1.62231445 11.75326538 C-3.78515625 11.25878906 -3.78515625 11.25878906 -5.55932617 9.39248657 C-7.05857311 6.78287574 -7.1753147 5.22399329 -6.78515625 2.25878906 C-4.2757132 -0.25065399 -3.46751538 0.00628577 0 0 Z " fill="#0A4BDD" transform="translate(112.78515625,63.7412109375)"/>
<path d="M0 0 C1.05449341 -0.00630432 2.10898682 -0.01260864 3.19543457 -0.019104 C4.909505 -0.01303131 4.909505 -0.01303131 6.65820312 -0.00683594 C8.41142883 -0.00970612 8.41142883 -0.00970612 10.20007324 -0.01263428 C12.67488825 -0.0139972 15.14971039 -0.01029335 17.62451172 -0.00195312 C21.42366517 0.00874461 25.22234572 -0.00184512 29.02148438 -0.01464844 C31.42122501 -0.01332686 33.82096534 -0.01076451 36.22070312 -0.00683594 C37.36341675 -0.0108844 38.50613037 -0.01493286 39.68347168 -0.019104 C41.26521179 -0.00964752 41.26521179 -0.00964752 42.87890625 0 C43.80997192 0.00159119 44.7410376 0.00318237 45.70031738 0.00482178 C47.93945312 0.25878906 47.93945312 0.25878906 49.93945312 2.25878906 C50.18945312 5.25878906 50.18945312 5.25878906 49.93945312 8.25878906 C47.38247893 10.81576326 46.42833242 10.51588288 42.87890625 10.53344727 C41.82441284 10.54297928 40.76991943 10.55251129 39.68347168 10.56233215 C37.96940125 10.56096504 37.96940125 10.56096504 36.22070312 10.55957031 C34.46747742 10.565998 34.46747742 10.565998 32.67883301 10.57255554 C30.20402678 10.57830663 27.72920365 10.57879341 25.25439453 10.57446289 C21.45511236 10.57130209 17.65660772 10.59475645 13.85742188 10.62011719 C11.45768328 10.62238989 9.05794258 10.62309381 6.65820312 10.62207031 C5.5154895 10.63128006 4.37277588 10.64048981 3.19543457 10.64997864 C1.61369446 10.64063545 1.61369446 10.64063545 0 10.63110352 C-1.39659851 10.63204765 -1.39659851 10.63204765 -2.82141113 10.63301086 C-3.56032593 10.50951767 -4.29924072 10.38602448 -5.06054688 10.25878906 C-7.20970472 7.03505229 -7.4434149 5.99175232 -7.06054688 2.25878906 C-4.5013308 -0.30042702 -3.55200969 0.00607037 0 0 Z " fill="#0143DB" transform="translate(122.060546875,87.7412109375)"/>
<path d="M0 0 C1.49164673 -0.00945648 1.49164673 -0.00945648 3.01342773 -0.019104 C4.09052002 -0.01505554 5.1676123 -0.01100708 6.27734375 -0.00683594 C7.37957275 -0.00874939 8.48180176 -0.01066284 9.61743164 -0.01263428 C11.95101143 -0.01399706 14.28459878 -0.01029416 16.61816406 -0.00195312 C20.20004222 0.00874485 23.78141878 -0.00184552 27.36328125 -0.01464844 C29.6263032 -0.01332686 31.88932483 -0.0107645 34.15234375 -0.00683594 C35.76798218 -0.01290863 35.76798218 -0.01290863 37.41625977 -0.019104 C38.41069092 -0.01279968 39.40512207 -0.00649536 40.4296875 0 C41.3074585 0.00159119 42.18522949 0.00318237 43.08959961 0.00482178 C45.21484375 0.25878906 45.21484375 0.25878906 47.21484375 2.25878906 C47.46484375 5.25878906 47.46484375 5.25878906 47.21484375 8.25878906 C44.7054007 10.76823211 43.89720288 10.51129236 40.4296875 10.51757812 C38.93804077 10.52703461 38.93804077 10.52703461 37.41625977 10.53668213 C36.33916748 10.53263367 35.2620752 10.52858521 34.15234375 10.52441406 C33.05011475 10.52632751 31.94788574 10.52824097 30.81225586 10.5302124 C28.47867607 10.53157519 26.14508872 10.52787229 23.81152344 10.51953125 C20.22964528 10.50883327 16.64826872 10.51942364 13.06640625 10.53222656 C10.8033843 10.53090498 8.54036267 10.52834263 6.27734375 10.52441406 C5.20025146 10.52846252 4.12315918 10.53251099 3.01342773 10.53668213 C2.01899658 10.53037781 1.02456543 10.52407349 0 10.51757812 C-0.877771 10.51598694 -1.75554199 10.51439575 -2.65991211 10.51275635 C-4.78515625 10.25878906 -4.78515625 10.25878906 -6.78515625 8.25878906 C-7.03515625 5.25878906 -7.03515625 5.25878906 -6.78515625 2.25878906 C-4.2757132 -0.25065399 -3.46751538 0.00628577 0 0 Z " fill="#0143DB" transform="translate(115.78515625,111.7412109375)"/>
</svg>
